<svg width="60" height="60" fill="none" xmlns="http://www.w3.org/2000/svg"><path d="M16.364 28.637a1.363 1.363 0 10-2.727 0c0 3.58 3.95 8.497 4.4 9.047a1.367 1.367 0 001.92.189 1.366 1.366 0 00.189-1.92c-1.462-1.782-3.782-5.343-3.782-7.317zM45 27.273c-.754 0-1.364.61-1.364 1.364 0 1.966-2.32 5.531-3.782 7.317a1.365 1.365 0 002.11 1.73c.45-.55 4.4-5.466 4.4-9.047 0-.754-.61-1.364-1.364-1.364zm-15 0c-.753 0-1.363.61-1.363 1.364v8.181a1.363 1.363 0 102.727 0v-8.181c0-.754-.61-1.364-1.364-1.364z" fill="#ED413C"/><path d="M45 5.455c-.826 0-1.69.109-2.587.275C39.41 2.23 34.964 0 30 0s-9.41 2.23-12.413 5.73c-.897-.166-1.76-.276-2.587-.276-8.271 0-15 6.73-15 15 0 5.668 3.196 10.82 8.214 13.368L8.187 54.43a5.528 5.528 0 001.627 3.937A5.524 5.524 0 0013.751 60h32.504a5.57 5.57 0 005.563-5.564V33.802c5-2.554 8.182-7.698 8.182-13.347 0-8.271-6.729-15-15-15zm4.09 48.981a2.84 2.84 0 01-2.836 2.837H13.751a2.82 2.82 0 01-2.007-.832 2.818 2.818 0 01-.83-2.009l.008-5.341H49.09v5.345zm.845-22.757a1.337 1.337 0 00-.622.515 1.346 1.346 0 00-.222.777v13.393H10.925l.017-13.374a1.365 1.365 0 00-.848-1.294 12.27 12.27 0 01-7.367-11.241C2.727 13.687 8.232 8.182 15 8.182c.264 0 .544.032.818.053a16.246 16.246 0 00-2.182 8.129 1.363 1.363 0 102.728 0c0-7.52 6.117-13.637 13.636-13.637 7.519 0 13.636 6.118 13.636 13.637a1.363 1.363 0 102.728 0c0-2.96-.802-5.73-2.182-8.129.274-.021.553-.053.818-.053 6.768 0 12.273 5.505 12.273 12.273 0 4.858-2.88 9.26-7.338 11.224z" fill="#ED413C"/></svg>