<svg width="58" height="60" fill="none" xmlns="http://www.w3.org/2000/svg"><path d="M12.937 24.557h4.565a2.26 2.26 0 002.26-2.254v-4.554a2.26 2.26 0 00-2.26-2.255h-4.565a2.258 2.258 0 00-2.257 2.255v4.554a2.258 2.258 0 002.257 2.254zm.087-6.72h4.395v4.377h-4.395v-4.376z" fill="#ED413C"/><path d="M53.638 32.751c-.561 0-1.125.12-1.639.357-.395-1.252-1.335-2.058-2.412-2.394V5.53c0-3.048-2.485-5.529-5.54-5.529H5.54C2.485 0 0 2.48 0 5.53v3.118a2.661 2.661 0 002.66 2.657h1.142v44.013a2.661 2.661 0 002.66 2.656h31.014C39.532 59.306 41.775 60 44.053 60c1.266 0 2.544-.214 3.806-.652 2.723-.945 5.155-2.92 6.85-5.56 1.796-2.801 2.734-6.247 2.712-9.96v-7.15c0-2.578-1.903-3.927-3.783-3.927zM6.146 55.318V11.305h10.737a1.172 1.172 0 100-2.344H2.66a.319.319 0 01-.316-.313V5.53A3.195 3.195 0 015.54 2.344h33.982c-.639.9-1.014 2-1.014 3.185v3.12a.319.319 0 01-.317.312h-10.76a1.172 1.172 0 100 2.344h10.76a2.661 2.661 0 002.66-2.657V5.53a3.195 3.195 0 013.197-3.185 3.195 3.195 0 013.196 3.185v25.185a3.735 3.735 0 00-.465.177c-.534-1.695-2.067-2.574-3.584-2.574-.49 0-.98.091-1.438.272v-6.6c0-2.578-1.903-3.927-3.782-3.927-1.88 0-3.782 1.348-3.782 3.927v16.932c0 .533.01 1.02.018 1.449l.003.14-2.724-2.92c-1.587-1.699-3.881-1.873-5.58-.424-1.67 1.426-2.44 4.234-.576 6.627l8.134 10.44c.387.496.789.96 1.204 1.395H6.462a.319.319 0 01-.316-.312zm48.932-11.482c.037 6.382-3.098 11.602-7.987 13.298-4.136 1.434-8.538-.188-11.774-4.34l-8.134-10.44c-.97-1.244-.596-2.682.25-3.403.196-.168.573-.423 1.05-.423.381 0 .826.163 1.293.663l2.854 3.06c.806.862 1.807 1.936 2.918 1.486.885-.36.967-1.36.994-1.688.038-.452.026-1.013.012-1.724-.008-.418-.018-.892-.018-1.402V21.99c0-1.507 1.199-1.583 1.439-1.583s1.438.076 1.438 1.584v16.776a1.172 1.172 0 002.344 0v-6.523c0-1.507 1.198-1.584 1.438-1.584.38 0 .741.136.993.372.295.277.445.685.445 1.212v6.523a1.172 1.172 0 002.344 0v-4.305c0-1.508 1.198-1.584 1.438-1.584.38 0 .741.136.993.372.296.278.446.685.446 1.212v4.305a1.172 1.172 0 002.344 0v-2.09c0-1.506 1.2-1.583 1.44-1.583.38 0 .742.136.994.372.296.278.446.685.446 1.212v7.158z" fill="#ED413C"/><path d="M22.35 16.666c0 .647.525 1.172 1.172 1.172h9.379a1.172 1.172 0 000-2.344h-9.379c-.647 0-1.172.525-1.172 1.172zm8.56 5.548h-7.388a1.172 1.172 0 100 2.343h7.388a1.172 1.172 0 000-2.343zM11.852 31.28h17.899a1.172 1.172 0 000-2.344H11.852a1.172 1.172 0 100 2.344zm0 6.719h9.655a1.172 1.172 0 100-2.343h-9.655a1.172 1.172 0 100 2.343zm0 6.723h8.503a1.172 1.172 0 000-2.344h-8.503a1.172 1.172 0 100 2.344zm12.475 4.375H11.852a1.172 1.172 0 100 2.344h12.475a1.172 1.172 0 100-2.344zm-2.17-37.792h.006a1.17 1.17 0 001.169-1.172 1.175 1.175 0 00-2.347 0c0 .647.524 1.172 1.172 1.172z" fill="#ED413C"/></svg>