<svg width="70" height="71" fill="none" xmlns="http://www.w3.org/2000/svg"><path d="M17.5 61.233h-1.328a8.145 8.145 0 001.328-4.454v-2.934c0-.645-.106-1.286-.316-1.896l-3.609-10.492a3.507 3.507 0 00-2.375-2.45l2.2-8.217a3.46 3.46 0 00-1.39-3.782 3.265 3.265 0 00-1.05-.5 3.3 3.3 0 00-.932-.129 3.46 3.46 0 00-3.367 2.537L.435 48.049a5.89 5.89 0 00-.158 3.011l1.799 6.99c.17.664.257 1.346.257 2.031v1.151H1.167A1.167 1.167 0 000 62.4v7a1.167 1.167 0 001.167 1.167H17.5a1.167 1.167 0 001.167-1.167v-7a1.167 1.167 0 00-1.167-1.166zM4.335 57.464L2.55 50.535a3.5 3.5 0 01.104-1.77L8.9 29.57a1.153 1.153 0 011.782-.64 1.147 1.147 0 01.467 1.26l-2.41 8.993a3.467 3.467 0 00-2.041 3.174c-.005.306.034.611.116.906l2.112 7.89a1.167 1.167 0 002.254-.605L9.064 42.63a.977.977 0 01-.034-.275 1.133 1.133 0 01.774-1.085c.026-.01.137-.047.155-.05a1.181 1.181 0 011.386.919l3.632 10.569c.126.365.19.75.19 1.136v2.934c0 1.152-.34 2.279-.98 3.237l-.811 1.217h-8.71V60.08c0-.883-.111-1.762-.33-2.617zm11.998 10.769h-14v-4.667h14v4.666zM51.334 62.4v7a1.167 1.167 0 001.166 1.166h16.334A1.167 1.167 0 0070 69.399v-7a1.167 1.167 0 00-1.166-1.166h-1.167V60.08c0-.687.087-1.37.258-2.036l1.799-6.99a5.89 5.89 0 00-.159-3.012L63.34 28.916a3.46 3.46 0 00-3.361-2.532 3.3 3.3 0 00-.934.13 3.266 3.266 0 00-1.05.499 3.461 3.461 0 00-1.388 3.782l2.193 8.217a3.508 3.508 0 00-2.375 2.45l-3.609 10.492a5.815 5.815 0 00-.316 1.891v2.934c0 1.582.462 3.13 1.328 4.453H52.5a1.167 1.167 0 00-1.166 1.167zm14-2.319v1.151h-8.71l-.81-1.216a5.82 5.82 0 01-.98-3.237v-2.934c0-.387.064-.77.19-1.136l3.632-10.57a1.181 1.181 0 011.386-.919c.017 0 .128.041.155.05a1.133 1.133 0 01.773 1.086.977.977 0 01-.034.275l-2.12 7.916a1.167 1.167 0 102.255.604l2.111-7.889c.082-.295.121-.6.117-.906a3.466 3.466 0 00-2.037-3.174l-2.408-8.995a1.146 1.146 0 01.467-1.259 1.152 1.152 0 011.782.64l6.244 19.196a3.5 3.5 0 01.104 1.77l-1.785 6.929c-.22.855-.332 1.735-.332 2.618zm-11.667 3.485h14v4.667h-14v-4.667zm.466-54.736L35.468.663a1.167 1.167 0 00-.934 0L15.867 8.83a1.167 1.167 0 00-.7 1.069v23.333a1.167 1.167 0 00.636 1.04l18.667 9.497a1.167 1.167 0 001.054.003l18.667-9.38a1.166 1.166 0 00.642-1.043V9.899a1.167 1.167 0 00-.7-1.069zM35 3.005l15.756 6.894L35 16.793 30.905 15l6.231-2.727a1.167 1.167 0 000-2.137L32.13 7.954a1.167 1.167 0 00-.933 0l-8.203 3.585L19.25 9.9 35 3.005zm-10.5 11.74l2.333 1.02v5.08L24.5 19.677v-4.933zm1.4-1.932l5.759-2.516 2.088.91L28 13.728l-2.1-.914zm-8.4-1.13l4.667 2.041V20.4a1.167 1.167 0 00.645 1.044l4.666 2.333a1.167 1.167 0 001.689-1.044v-5.95l4.666 2.042v22.002L17.5 32.517V11.683zm18.667 29.154V18.828L52.5 11.683v20.946l-16.333 8.208z" fill="#ED413C"/><path d="M42.651 32.337l-4.675 2.35a1.167 1.167 0 101.05 2.085l4.675-2.35a1.167 1.167 0 10-1.05-2.085zm-4.151-.108c.182 0 .36-.042.523-.124l4.608-2.316a1.167 1.167 0 10-1.05-2.085l-4.607 2.316a1.167 1.167 0 00.526 2.209z" fill="#ED413C"/></svg>