<svg width="70" height="70" fill="none" xmlns="http://www.w3.org/2000/svg"><path d="M68.834 0h-7a1.167 1.167 0 00-1.167 1.167v.445L58.181.37A3.516 3.516 0 0056.616 0H39.518a3.5 3.5 0 00-2.184.768l-4.878 3.899H12.834a1.167 1.167 0 00-1.167 1.166V24.5a1.167 1.167 0 001.167 1.167h35A1.167 1.167 0 0049 24.5v-8.81a10.53 10.53 0 009.267-.757l1.56-.933h.84v1.167a1.167 1.167 0 001.167 1.166h7A1.167 1.167 0 0070 15.167v-14A1.167 1.167 0 0068.834 0zM14 23.333V7h27.917L40.61 8.309a3.5 3.5 0 004.949 4.949l1.108-1.108v11.183H14zm45.493-11.666c-.21 0-.414.058-.593.167l-1.833 1.098a8.202 8.202 0 01-7.28.563l-.787-.32V9.816l1.482-1.481.602.2a8.218 8.218 0 005.166 0l1.283-.428a1.168 1.168 0 00-.737-2.217l-1.283.43a5.867 5.867 0 01-3.69 0l-1.283-.43a1.166 1.166 0 00-1.193.283l-2.334 2.333-3.104 3.102a1.167 1.167 0 01-1.65-1.65l4.534-4.534a1.167 1.167 0 00-1.65-1.65l-.892.893h-8.06l2.597-2.078a1.17 1.17 0 01.73-.256h17.098c.181.001.36.043.522.123l3.529 1.765v7.438l-1.174.008zM67.667 14H63V2.333h4.667V14z" fill="#ED413C"/><path d="M30.334 11.667a1.167 1.167 0 011.166 1.166h2.334A3.5 3.5 0 0031.5 9.548V8.167h-2.333v1.381a3.492 3.492 0 001.166 6.785 1.167 1.167 0 11-1.166 1.167h-2.334a3.5 3.5 0 002.334 3.285v1.382H31.5v-1.382A3.492 3.492 0 0030.334 14a1.167 1.167 0 010-2.333zm-7 2.333H21a1.167 1.167 0 100 2.333h2.334a1.167 1.167 0 100-2.333zm16.332 0h-2.333a1.167 1.167 0 100 2.333h2.334a1.167 1.167 0 100-2.333zm8.702 41.735a3.487 3.487 0 00-4.784-1.283l-7.498 4.316A3.5 3.5 0 0032.666 56h-8.983l-.233-.157a12.796 12.796 0 00-14.117-.077v-.933a1.167 1.167 0 00-1.166-1.166h-7A1.167 1.167 0 000 54.832v14A1.167 1.167 0 001.167 70h7a1.167 1.167 0 001.166-1.167v-.159l1.09.724a3.476 3.476 0 001.955.602h17.325a3.409 3.409 0 001.75-.467l15.634-9.018a3.52 3.52 0 001.75-3.04c0-.611-.162-1.212-.47-1.74zM7 67.666H2.333V56H7v11.666zm38.92-9.176l-15.65 9.028c-.172.1-.368.152-.567.148H12.378a1.14 1.14 0 01-.65-.201l-2.395-1.59v-7.542c.23 0 .455-.067.647-.195l.53-.35a10.472 10.472 0 0111.649 0l.528.35c.191.128.416.195.646.195h9.334a1.167 1.167 0 110 2.334h-7a1.167 1.167 0 100 2.333h7a3.472 3.472 0 002.31-.892l9.786-5.641a1.129 1.129 0 01.87-.117 1.16 1.16 0 01.713.55c.102.173.156.37.157.57a1.18 1.18 0 01-.583 1.02z" fill="#ED413C"/><path d="M45.5 30.333H15.167A1.167 1.167 0 0014 31.5v21a1.166 1.166 0 001.167 1.167H45.5a1.167 1.167 0 001.167-1.167v-21a1.167 1.167 0 00-1.167-1.167zm-14 2.334v4.666h-2.333v-4.666H31.5zm12.833 18.666h-28V32.667h10.5V38.5A1.167 1.167 0 0028 39.667h4.667a1.167 1.167 0 001.166-1.167v-5.833h10.5v18.666z" fill="#ED413C"/><path d="M23.333 44.333h-4.666a1.167 1.167 0 100 2.334h4.666a1.167 1.167 0 100-2.334zm4.667 0h-1.167a1.167 1.167 0 100 2.334H28a1.167 1.167 0 100-2.334zm-4.667 3.5h-4.666a1.167 1.167 0 100 2.334h4.666a1.167 1.167 0 100-2.334zm4.667 0h-1.167a1.167 1.167 0 100 2.334H28a1.167 1.167 0 100-2.334z" fill="#ED413C"/></svg>