<svg width="70" height="70" fill="none" xmlns="http://www.w3.org/2000/svg"><path d="M55.661 27.497l5.896-5.893a24.599 24.599 0 006.99-14.268l.279-2.27a3.505 3.505 0 00-3.908-3.91l-2.274.281A24.585 24.585 0 0048.37 8.418l-6.217 6.218-24.442-5.324a19.871 19.871 0 00-9.519.272l-2.322.645a1.165 1.165 0 00-.382 2.058L28.047 29.01a55.07 55.07 0 00-2.279 2.813L15.841 44.92l-13.076-.278H2.74a1.165 1.165 0 00-.677 2.109l8.04 5.74-1.292 1.706a3.542 3.542 0 00.306 4.586l2.08 2.08a3.54 3.54 0 004.583.3l1.548-1.174 5.064 7.095a1.165 1.165 0 002.113-.654l.233-12.057 13.415-10.166a54.327 54.327 0 002.879-2.35l17.484 23.457a1.166 1.166 0 002.055-.377l.594-2.084a19.867 19.867 0 00.273-9.803L55.66 27.496zM22.242 62.865L19.19 58.59l3.183-2.417-.13 6.694zM8.814 11.826a17.553 17.553 0 018.402-.232l22.979 5.01-9.08 9.08a88.476 88.476 0 00-1.515 1.58L8.79 11.835l.024-.008zm2.69 38.809l-5.01-3.582 7.612.162-1.206 1.587-1.395 1.833zm25.235-8.284L22.886 52.869 14.38 59.3a1.19 1.19 0 01-1.54-.09l-2.068-2.068a1.195 1.195 0 01-.098-1.544l4.194-5.53 2.484-3.262c.012-.015.017-.032.027-.048l10.253-13.529a53.691 53.691 0 012.98-3.619s1.4-1.515 2.052-2.174L50.022 10.07a22.23 22.23 0 0112.9-6.32s2.37-.29 2.42-.29a1.174 1.174 0 011.164 1.32l-.278 2.27a22.255 22.255 0 01-6.322 12.903S42.398 37.455 42.272 37.578c-.65.64-1.25 1.204-1.843 1.718a50.81 50.81 0 01-3.69 3.055zM58.97 62.032L42.787 40.316c.075-.07 10.926-10.87 10.926-10.87l5.452 24.118a17.53 17.53 0 01-.19 8.47h-.005z" fill="#ED413C"/><path d="M18.398 49.93l-4.944 4.944a1.167 1.167 0 00.82 2.003 1.165 1.165 0 00.828-.356l4.944-4.943a1.165 1.165 0 00-1.648-1.648zM5.995 36.348a1.165 1.165 0 001.647 0l9.946-9.944a1.165 1.165 0 00-1.647-1.648L5.995 34.7a1.165 1.165 0 000 1.648zM24.989 8.737c.309 0 .605-.123.823-.342l6.391-6.392A1.165 1.165 0 1030.556.356l-6.391 6.392a1.165 1.165 0 00.824 1.989zM7.287 21.094a1.164 1.164 0 10-1.647-1.648L.356 24.73a1.166 1.166 0 101.647 1.648l5.284-5.284zm43.925 40.512l-6.392 6.39a1.164 1.164 0 00.368 1.917 1.166 1.166 0 001.28-.269l6.391-6.39a1.165 1.165 0 00-1.647-1.648zm-5.027-7.874a1.165 1.165 0 00-1.647 0L30.956 67.314a1.165 1.165 0 101.647 1.648L46.185 55.38a1.165 1.165 0 000-1.648zm23.304-7.804a1.165 1.165 0 00-1.648 0l-4.66 4.66a1.165 1.165 0 101.647 1.648l4.66-4.66a1.165 1.165 0 000-1.648z" fill="#ED413C"/></svg>