<svg width="58" height="60" viewBox="0 0 58 60" fill="none" xmlns="http://www.w3.org/2000/svg">
<path d="M12.9374 24.5572H17.502C18.7485 24.5572 19.7627 23.5458 19.7627 22.3026V17.749C19.7627 16.5058 18.7485 15.4944 17.502 15.4944H12.9374C11.6928 15.4944 10.6802 16.5058 10.6802 17.749V22.3026C10.6802 23.5458 11.6928 24.5572 12.9374 24.5572ZM13.0239 17.8379H17.4188V22.2137H13.0239V17.8379Z" fill="#ED413C"/>
<path d="M53.6378 32.751C53.0766 32.751 52.5132 32.8711 51.9992 33.1082C51.6041 31.8555 50.6637 31.0501 49.5875 30.7143V5.52949C49.5874 2.48051 47.1022 0 44.0475 0H5.54004C2.48531 0 0 2.48051 0 5.52949V8.64832C0 10.113 1.19332 11.3047 2.66016 11.3047H3.80215V55.3177C3.80215 56.7824 4.99547 57.9741 6.4623 57.9741H37.4762C39.5321 59.3063 41.7745 60.0001 44.0525 60C45.3191 60 46.597 59.7857 47.8592 59.3477C50.5819 58.4033 53.0143 56.4287 54.7086 53.7875C56.5051 50.987 57.4432 47.541 57.4215 43.8288V36.6778C57.4215 34.0998 55.518 32.751 53.6378 32.751ZM6.1459 55.3177V11.3047H16.8832C17.5304 11.3047 18.0551 10.7801 18.0551 10.133C18.0551 9.48586 17.5304 8.96121 16.8832 8.96121H2.66016C2.48871 8.96121 2.34375 8.81789 2.34375 8.6482V5.52949C2.34375 3.77273 3.77754 2.34352 5.54004 2.34352H39.5219C38.8832 3.24469 38.5076 4.34402 38.5076 5.52949V8.64832C38.5076 8.81801 38.3627 8.96133 38.1912 8.96133H27.4307C26.7834 8.96133 26.2588 9.48598 26.2588 10.1331C26.2588 10.7802 26.7834 11.3048 27.4307 11.3048H38.1912C39.658 11.3048 40.8513 10.1132 40.8513 8.64844V5.52949C40.8513 3.77273 42.2851 2.34352 44.0475 2.34352C45.8099 2.34352 47.2437 3.77273 47.2437 5.52949V30.7137C47.0856 30.763 46.93 30.8212 46.779 30.8909C46.2446 29.1959 44.7123 28.3168 43.1952 28.3168C42.7058 28.3168 42.2153 28.4081 41.7568 28.5888V21.9905C41.7568 19.4125 39.8543 18.0635 37.9748 18.0635C36.0953 18.0635 34.1927 19.4123 34.1927 21.9905V38.923C34.1927 39.4563 34.2025 39.9427 34.2109 40.3718C34.212 40.4181 34.2129 40.465 34.2137 40.512L31.4898 37.5918C29.903 35.8931 27.6086 35.7189 25.9104 37.1682C24.2393 38.5945 23.4695 41.4018 25.3342 43.7948L33.4679 54.2343C33.8548 54.7307 34.2569 55.1957 34.6718 55.6305H6.4623C6.29074 55.6305 6.1459 55.4872 6.1459 55.3177ZM55.0778 43.8356C55.115 50.2181 51.98 55.438 47.0911 57.1338C42.9551 58.5682 38.5532 56.9462 35.3168 52.794L27.1832 42.3547C26.2131 41.1097 26.5874 39.6716 27.4321 38.9508C27.6292 38.7826 28.0064 38.528 28.4831 38.528C28.8643 38.528 29.3093 38.6907 29.7765 39.1909L32.6302 42.2502C33.4356 43.1129 34.4372 44.1867 35.548 43.7365C36.4329 43.3775 36.5153 42.3775 36.5423 42.0489C36.5795 41.5969 36.5684 41.0357 36.5542 40.3252C36.546 39.907 36.5365 39.4331 36.5365 38.9231V21.9905C36.5365 20.4833 37.7347 20.407 37.9748 20.407C38.215 20.407 39.4131 20.4833 39.4131 21.9905V38.767C39.4131 39.4141 39.9378 39.9388 40.585 39.9388C41.2321 39.9388 41.7568 39.4141 41.7568 38.767V32.2438C41.7568 30.7366 42.9551 30.6604 43.1952 30.6604C43.5743 30.6604 43.9362 30.7957 44.1878 31.032C44.4835 31.3095 44.6335 31.7171 44.6335 32.2439V38.7671C44.6335 39.4143 45.1583 39.9389 45.8054 39.9389C46.4525 39.9389 46.9773 39.4143 46.9773 38.7671V34.4625C46.9773 32.9543 48.1747 32.8779 48.4148 32.8779C48.7941 32.8779 49.156 33.0135 49.408 33.2497C49.704 33.5276 49.8541 33.9355 49.8541 34.4624V38.767C49.8541 39.4141 50.3789 39.9388 51.026 39.9388C51.6731 39.9388 52.1979 39.4141 52.1979 38.767V36.6778C52.1979 35.1708 53.3974 35.0945 53.6379 35.0945C54.0176 35.0945 54.38 35.23 54.6319 35.4662C54.9278 35.7436 55.0779 36.1513 55.0779 36.6778V43.8356H55.0778Z" fill="#ED413C"/>
<path d="M22.3501 16.6661C22.3501 17.3133 22.8747 17.8379 23.522 17.8379H32.9007C33.5478 17.8379 34.0726 17.3133 34.0726 16.6661C34.0726 16.019 33.5478 15.4944 32.9007 15.4944H23.522C22.8747 15.4944 22.3501 16.019 22.3501 16.6661Z" fill="#ED413C"/>
<path d="M30.9098 22.2137H23.522C22.8747 22.2137 22.3501 22.7384 22.3501 23.3855C22.3501 24.0326 22.8747 24.5573 23.522 24.5573H30.9098C31.5569 24.5573 32.0817 24.0326 32.0817 23.3855C32.0817 22.7384 31.5569 22.2137 30.9098 22.2137Z" fill="#ED413C"/>
<path d="M11.8521 31.2797H29.7508C30.3979 31.2797 30.9227 30.755 30.9227 30.1079C30.9227 29.4608 30.3979 28.9362 29.7508 28.9362H11.8521C11.2048 28.9362 10.6802 29.4608 10.6802 30.1079C10.6802 30.755 11.2048 31.2797 11.8521 31.2797Z" fill="#ED413C"/>
<path d="M11.8521 37.999H21.5072C22.1545 37.999 22.6791 37.4744 22.6791 36.8273C22.6791 36.1802 22.1545 35.6555 21.5072 35.6555H11.8521C11.2048 35.6555 10.6802 36.1802 10.6802 36.8273C10.6802 37.4744 11.2048 37.999 11.8521 37.999Z" fill="#ED413C"/>
<path d="M11.8521 44.7216H20.3553C21.0025 44.7216 21.5272 44.1969 21.5272 43.5498C21.5272 42.9027 21.0025 42.3781 20.3553 42.3781H11.8521C11.2048 42.3781 10.6802 42.9027 10.6802 43.5498C10.6802 44.1969 11.2048 44.7216 11.8521 44.7216Z" fill="#ED413C"/>
<path d="M24.3272 49.0974H11.8521C11.2048 49.0974 10.6802 49.6221 10.6802 50.2692C10.6802 50.9163 11.2048 51.4409 11.8521 51.4409H24.3272C24.9745 51.4409 25.4991 50.9163 25.4991 50.2692C25.4991 49.6221 24.9745 49.0974 24.3272 49.0974Z" fill="#ED413C"/>
<path d="M22.1566 11.3048H22.1633C22.8105 11.3048 23.3319 10.7802 23.3319 10.1331C23.3319 9.48595 22.804 8.9613 22.1567 8.9613C21.5095 8.9613 20.9849 9.48595 20.9849 10.1331C20.9849 10.7802 21.5094 11.3048 22.1566 11.3048Z" fill="#ED413C"/>
</svg>
