<svg width="60" height="60" viewBox="0 0 60 60" fill="none" xmlns="http://www.w3.org/2000/svg">
<path d="M16.3641 28.6365C16.3641 27.8828 15.7541 27.2728 15.0004 27.2728C14.2466 27.2728 13.6367 27.8828 13.6367 28.6365C13.6367 32.2173 17.5865 37.134 18.0366 37.6839C18.307 38.0116 18.6985 38.182 19.0926 38.182C19.3962 38.182 19.7025 38.0808 19.9568 37.873C20.5387 37.3949 20.6226 36.5361 20.1459 35.9527C18.6839 34.171 16.3641 30.61 16.3641 28.6365Z" fill="#ED413C"/>
<path d="M45 27.2728C44.2463 27.2728 43.6363 27.8828 43.6363 28.6365C43.6363 30.6033 41.3165 34.1683 39.8544 35.9541C39.3777 36.5361 39.4628 37.395 40.0449 37.873C40.2979 38.0808 40.6042 38.182 40.9091 38.182C41.3032 38.182 41.6934 38.0116 41.9638 37.6839C42.4139 37.134 46.3637 32.2175 46.3637 28.6365C46.3637 27.8828 45.7538 27.2728 45 27.2728Z" fill="#ED413C"/>
<path d="M30.0004 27.2728C29.2466 27.2728 28.6367 27.8828 28.6367 28.6365V36.8183C28.6367 37.5721 29.2466 38.182 30.0004 38.182C30.7542 38.182 31.3641 37.5721 31.3641 36.8183V28.6365C31.364 27.8828 30.754 27.2728 30.0004 27.2728Z" fill="#ED413C"/>
<path d="M45 5.45459C44.1737 5.45459 43.3101 5.5639 42.4133 5.73047C39.4099 2.22942 34.964 0 30.0001 0C25.0361 0 20.5901 2.22942 17.5868 5.73034C16.6899 5.5639 15.8263 5.45446 15.0001 5.45446C6.72891 5.45459 0 12.1835 0 20.4546C0 26.1221 3.19602 31.2744 8.21378 33.8219L8.18719 54.4296C8.18591 55.917 8.76376 57.3153 9.81448 58.3673C10.8665 59.4208 12.2634 60 13.751 60H46.2545C49.3227 60 51.8183 57.5044 51.8183 54.4362V33.8019C56.8174 31.2478 60.0001 26.1035 60.0001 20.4546C60 12.1835 53.2711 5.45459 45 5.45459ZM49.0909 54.4364C49.0909 55.9997 47.8179 57.2729 46.2544 57.2729H13.7508C12.9931 57.2729 12.2807 56.9772 11.744 56.4406C11.2086 55.904 10.913 55.1915 10.9143 54.4325L10.9215 49.0909H49.0909V54.4364ZM49.9352 31.6793C49.8632 31.7085 49.7953 31.7432 49.7314 31.7845C49.5596 31.891 49.4185 32.0322 49.3133 32.1946C49.2068 32.3557 49.1348 32.5422 49.1055 32.7419C49.0935 32.8178 49.0895 32.8937 49.0908 32.971V46.3636H10.9249L10.9424 32.9895C10.9437 32.915 10.9397 32.839 10.9291 32.7658C10.8999 32.5593 10.8239 32.3675 10.7133 32.2011C10.6094 32.0453 10.4736 31.9095 10.3085 31.8056C10.2406 31.763 10.1686 31.7257 10.0941 31.695C5.61836 29.7377 2.72723 25.3298 2.72723 20.4546C2.72723 13.6869 8.23245 8.18182 15 8.18182C15.2645 8.18182 15.5437 8.21378 15.8176 8.23539C14.438 10.6332 13.6363 13.404 13.6363 16.3636C13.6363 17.1174 14.2462 17.7273 15 17.7273C15.7537 17.7273 16.3636 17.1174 16.3636 16.3636C16.3636 8.84494 22.4814 2.72723 30.0001 2.72723C37.5188 2.72723 43.6364 8.84494 43.6364 16.3636C43.6364 17.1174 44.2463 17.7273 45 17.7273C45.7538 17.7273 46.3637 17.1174 46.3637 16.3636C46.3637 13.404 45.562 10.6333 44.1824 8.23539C44.4563 8.21378 44.7355 8.18182 45 8.18182C51.7677 8.18182 57.2728 13.687 57.2728 20.4546C57.2728 25.3125 54.3937 29.715 49.9352 31.6793Z" fill="#ED413C"/>
</svg>
