<svg width="70" height="71" viewBox="0 0 70 71" fill="none" xmlns="http://www.w3.org/2000/svg">
<path d="M17.5001 61.2325H16.1725C17.0381 59.9085 17.4994 58.3611 17.5001 56.7793V53.8451C17.5007 53.2 17.3938 52.5593 17.184 51.9492L13.5754 41.4573C13.4209 40.8805 13.1215 40.3527 12.7059 39.9239C12.2902 39.4951 11.7719 39.1796 11.2001 39.0073L13.3993 30.7904C13.5917 30.0939 13.5614 29.3546 13.3124 28.6763C13.0634 27.998 12.6083 27.4146 12.0109 27.008C11.6936 26.7801 11.338 26.611 10.9609 26.5087C10.6576 26.4211 10.3433 26.3775 10.0276 26.3792C9.26536 26.3721 8.52212 26.6168 7.91327 27.0755C7.30443 27.5341 6.86406 28.1809 6.66055 28.9155L0.43517 48.049C0.121868 49.022 0.0671861 50.0597 0.276502 51.0602L2.07552 58.0509C2.24634 58.7141 2.33297 59.3961 2.33335 60.081V61.2325H1.16668C0.857255 61.2325 0.560506 61.3554 0.341712 61.5742C0.122917 61.793 0 62.0897 0 62.3991V69.3992C0 69.7086 0.122917 70.0054 0.341712 70.2242C0.560506 70.443 0.857255 70.5659 1.16668 70.5659H17.5001C17.8096 70.5659 18.1063 70.443 18.3251 70.2242C18.5439 70.0054 18.6668 69.7086 18.6668 69.3992V62.3991C18.6668 62.0897 18.5439 61.793 18.3251 61.5742C18.1063 61.3554 17.8096 61.2325 17.5001 61.2325ZM4.33537 57.4641L2.55035 50.5352C2.4325 49.9461 2.46826 49.3366 2.65419 48.7654L8.89941 29.5689C8.93908 29.4218 9.00752 29.284 9.10078 29.1635C9.19405 29.043 9.31028 28.9421 9.44275 28.8669C9.57522 28.7916 9.7213 28.7433 9.87255 28.7248C10.0238 28.7063 10.1772 28.718 10.3239 28.7592C10.4528 28.7924 10.574 28.8503 10.6809 28.9295C10.8811 29.0637 11.0339 29.2576 11.1177 29.4835C11.2015 29.7095 11.2119 29.9561 11.1476 30.1884L8.73841 39.1823C8.12801 39.4576 7.6104 39.9038 7.24809 40.4669C6.88578 41.03 6.69428 41.686 6.69672 42.3556C6.69218 42.6618 6.73147 42.9671 6.81339 43.2622L8.92507 51.1512C9.00521 51.4501 9.20081 51.7049 9.46883 51.8596C9.73686 52.0143 10.0554 52.0562 10.3543 51.9761C10.6532 51.8959 10.908 51.7003 11.0627 51.4323C11.2174 51.1643 11.2592 50.8458 11.1791 50.5469L9.06391 42.631C9.03959 42.5413 9.02819 42.4486 9.03007 42.3556C9.02782 42.1163 9.10147 41.8823 9.24043 41.6874C9.3794 41.4925 9.57655 41.3466 9.80358 41.2706C9.83041 41.2613 9.94125 41.224 9.95875 41.2205C10.2643 41.1602 10.5813 41.2229 10.8408 41.3951C11.1004 41.5672 11.2815 41.8349 11.3448 42.1398L14.9766 52.7087C15.1027 53.0743 15.167 53.4584 15.1668 53.8451V56.7793C15.1677 57.9313 14.8267 59.0577 14.1868 60.0156L13.3759 61.2325H4.66671V60.081C4.6663 59.1982 4.55499 58.3191 4.33537 57.4641ZM16.3335 68.2325H2.33335V63.5658H16.3335V68.2325Z" fill="#ED413C"/>
<path d="M51.3335 62.3992V69.3993C51.3335 69.7087 51.4564 70.0054 51.6752 70.2242C51.894 70.443 52.1908 70.5659 52.5002 70.5659H68.8336C69.1431 70.5659 69.4398 70.443 69.6586 70.2242C69.8774 70.0054 70.0003 69.7087 70.0003 69.3993V62.3992C70.0003 62.0898 69.8774 61.793 69.6586 61.5742C69.4398 61.3554 69.1431 61.2325 68.8336 61.2325H67.667V60.081C67.6669 59.3942 67.7535 58.7102 67.9248 58.0452L69.7238 51.0544C69.9331 50.0539 69.8784 49.0162 69.5651 48.0432L63.3398 28.9156C63.1356 28.1828 62.6958 27.5378 62.0882 27.0801C61.4806 26.6225 60.7392 26.3778 59.9786 26.3839C59.6629 26.3822 59.3485 26.4258 59.0452 26.5134C58.6682 26.6157 58.3125 26.7848 57.9952 27.0127C57.3979 27.4193 56.9428 28.0027 56.6938 28.681C56.4448 29.3594 56.4144 30.0986 56.6069 30.7951L58.8002 39.012C58.2284 39.1844 57.7102 39.4999 57.2945 39.9286C56.8788 40.3574 56.5794 40.8852 56.4249 41.462L52.8163 51.9539C52.607 52.5625 52.5002 53.2016 52.5002 53.8451V56.7793C52.5009 58.3611 52.9622 59.9085 53.8279 61.2325H52.5002C52.1908 61.2325 51.894 61.3554 51.6752 61.5742C51.4564 61.793 51.3335 62.0898 51.3335 62.3992ZM65.3336 60.081V61.2325H56.6244L55.8135 60.0157C55.1737 59.0577 54.8326 57.9313 54.8335 56.7793V53.8451C54.8333 53.4584 54.8976 53.0744 55.0237 52.7088L58.6556 42.1399C58.7188 41.8349 58.8999 41.5673 59.1595 41.3951C59.419 41.223 59.736 41.1602 60.0416 41.2205C60.0591 41.2205 60.1699 41.2614 60.1967 41.2707C60.4238 41.3466 60.6209 41.4925 60.7599 41.6874C60.8989 41.8824 60.9725 42.1163 60.9702 42.3557C60.9721 42.4486 60.9607 42.5413 60.9364 42.631L58.8166 50.5469C58.7364 50.8458 58.7783 51.1643 58.933 51.4324C59.0877 51.7004 59.3425 51.896 59.6414 51.9761C59.9403 52.0562 60.2588 52.0144 60.5268 51.8597C60.7948 51.705 60.9904 51.4502 61.0706 51.1513L63.1823 43.2622C63.2642 42.9671 63.3035 42.6619 63.2989 42.3557C63.3018 41.6866 63.111 41.031 62.7495 40.4679C62.3881 39.9048 61.8714 39.4583 61.2619 39.1823L58.8539 30.1873C58.7895 29.955 58.8 29.7084 58.8838 29.4824C58.9675 29.2564 59.1204 29.0626 59.3206 28.9284C59.4275 28.8491 59.5487 28.7913 59.6776 28.7581C59.8243 28.7169 59.9777 28.7052 60.1289 28.7237C60.2802 28.7422 60.4263 28.7904 60.5587 28.8657C60.6912 28.941 60.8074 29.0418 60.9007 29.1623C60.994 29.2828 61.0624 29.4206 61.1021 29.5678L67.3473 48.7642C67.5332 49.3355 67.569 49.945 67.4511 50.5341L65.6661 57.463C65.446 58.3183 65.3343 59.1978 65.3336 60.081ZM53.6668 63.5659H67.667V68.2326H53.6668V63.5659Z" fill="#ED413C"/>
<path d="M54.1335 8.83005L35.4667 0.663318C35.3195 0.599077 35.1606 0.565918 35 0.565918C34.8394 0.565918 34.6805 0.599077 34.5333 0.663318L15.8665 8.83005C15.6585 8.92081 15.4816 9.07025 15.3572 9.26006C15.2329 9.44987 15.1666 9.67182 15.1665 9.89873V33.2323C15.1665 33.4474 15.226 33.6584 15.3384 33.8418C15.4508 34.0253 15.6118 34.1741 15.8035 34.2718L34.4703 43.7685C34.6344 43.8521 34.8159 43.8957 35 43.8957C35.1818 43.8954 35.3611 43.8531 35.5238 43.772L54.1907 34.3919C54.384 34.2948 54.5465 34.1458 54.66 33.9616C54.7735 33.7774 54.8336 33.5653 54.8335 33.3489V9.89873C54.8334 9.67182 54.7671 9.44987 54.6428 9.26006C54.5184 9.07025 54.3415 8.92081 54.1335 8.83005ZM35 3.00484L50.756 9.89873L35 16.7926L30.905 15.0006L37.1362 12.2741C37.3439 12.1831 37.5206 12.0336 37.6447 11.8438C37.7687 11.654 37.8348 11.4322 37.8348 11.2054C37.8348 10.9787 37.7687 10.7568 37.6447 10.567C37.5206 10.3772 37.3439 10.2277 37.1362 10.1367L32.13 7.95388C31.9828 7.88964 31.8239 7.85648 31.6633 7.85648C31.5027 7.85648 31.3438 7.88964 31.1966 7.95388L22.9937 11.5391L19.2499 9.89873L35 3.00484ZM24.4999 14.7451L26.8333 15.7659V20.8445L24.4999 19.6778V14.7451ZM25.8999 12.8131L31.6586 10.2966L33.747 11.2077L27.9999 13.7266L25.8999 12.8131ZM17.4999 11.6826L22.1666 13.7243V20.3988C22.1665 20.6156 22.2268 20.8282 22.3407 21.0126C22.4547 21.197 22.6178 21.3461 22.8117 21.443L27.4784 23.7763C27.6564 23.8652 27.854 23.9072 28.0527 23.8982C28.2514 23.8892 28.4445 23.8295 28.6137 23.7249C28.7828 23.6203 28.9224 23.4742 29.0192 23.3004C29.116 23.1267 29.1667 22.9311 29.1666 22.7322V16.7821L33.8333 18.8238V40.8261L17.4999 32.5171V11.6826ZM36.1667 40.8367V18.8285L52.5001 11.6826V32.6291L36.1667 40.8367Z" fill="#ED413C"/>
<path d="M42.651 32.3374L37.9761 34.6871C37.6997 34.8263 37.4898 35.0697 37.3928 35.3636C37.2958 35.6576 37.3195 35.978 37.4587 36.2545C37.598 36.531 37.8413 36.7408 38.1353 36.8378C38.4292 36.9349 38.7497 36.9112 39.0262 36.7719L43.701 34.4222C43.9775 34.283 44.1873 34.0396 44.2844 33.7457C44.3814 33.4517 44.3577 33.1313 44.2185 32.8548C44.0792 32.5783 43.8358 32.3685 43.5419 32.2715C43.2479 32.1744 42.9275 32.1981 42.651 32.3374Z" fill="#ED413C"/>
<path d="M38.5003 32.2288C38.6818 32.2288 38.8607 32.1865 39.023 32.1052L43.6313 29.7893C43.9078 29.6501 44.1176 29.4067 44.2147 29.1128C44.3117 28.8188 44.288 28.4983 44.1488 28.2219C44.0095 27.9454 43.7662 27.7356 43.4722 27.6385C43.1783 27.5415 42.8578 27.5652 42.5813 27.7045L37.9741 30.0203C37.7396 30.1385 37.5519 30.3323 37.4412 30.5705C37.3305 30.8086 37.3034 31.0771 37.3643 31.3325C37.4251 31.588 37.5704 31.8154 37.7766 31.9781C37.9827 32.1407 38.2377 32.2291 38.5003 32.2288Z" fill="#ED413C"/>
</svg>
