<svg width="70" height="70" viewBox="0 0 70 70" fill="none" xmlns="http://www.w3.org/2000/svg">
<path d="M55.6611 27.4965L61.5567 21.6044C65.4012 17.7525 67.8598 12.7345 68.5476 7.33606L68.826 5.0652C68.8913 4.53634 68.8351 3.99956 68.6618 3.49565C68.4885 2.99174 68.2027 2.53396 67.8259 2.15711C67.4492 1.78026 66.9915 1.49424 66.4876 1.32079C65.9838 1.14735 65.447 1.09104 64.9181 1.15615L62.6438 1.43695C57.2445 2.12015 52.2246 4.57563 48.3708 8.41848L42.1536 14.6357L17.7124 9.31214C14.5643 8.62974 11.2974 8.72291 8.19324 9.58362L5.87111 10.2291C5.66109 10.2876 5.4717 10.4039 5.32448 10.5647C5.17725 10.7255 5.07809 10.9244 5.03828 11.1387C4.99847 11.3531 5.0196 11.5743 5.09927 11.7773C5.17894 11.9802 5.31395 12.1567 5.48895 12.2867L28.0472 29.01C27.2689 29.9153 26.5011 30.8474 25.7682 31.8227L15.8412 44.9212L2.76485 44.6427H2.74038C2.4947 44.644 2.25573 44.723 2.05761 44.8683C1.8595 45.0136 1.71239 45.2178 1.6373 45.4517C1.56221 45.6857 1.56298 45.9373 1.63952 46.1708C1.71605 46.4043 1.86443 46.6076 2.06343 46.7516L10.1029 52.4911L8.81077 54.198C8.30819 54.874 8.06298 55.707 8.11914 56.5475C8.1753 57.388 8.52915 58.1809 9.1172 58.784L11.197 60.8638C11.8006 61.4501 12.5934 61.8023 13.4331 61.8571C14.2728 61.912 15.1047 61.666 15.7795 61.1633L17.3279 59.99L22.3917 67.0845C22.4994 67.2355 22.6418 67.3586 22.8067 67.4435C22.9717 67.5284 23.1545 67.5727 23.3401 67.5727C23.4586 67.5729 23.5764 67.5552 23.6896 67.5203C23.9226 67.4471 24.1266 67.3025 24.273 67.107C24.4193 66.9115 24.5006 66.675 24.5052 66.4309L24.7382 54.374L38.1525 44.2081C39.1592 43.4473 40.1146 42.655 41.0316 41.858L58.5157 65.3147C58.6455 65.489 58.8214 65.6237 59.0237 65.7033C59.226 65.7829 59.4465 65.8043 59.6603 65.7652C59.8741 65.726 60.0727 65.6278 60.2337 65.4817C60.3946 65.3356 60.5114 65.1474 60.571 64.9383L61.1652 62.8539C62.0737 59.6605 62.1675 56.2904 61.4379 53.0515L55.6611 27.4965ZM22.2425 62.8655L19.1898 58.5895L22.373 56.1718L22.2425 62.8655ZM8.81426 11.8265C11.5547 11.0696 14.4379 10.9896 17.2161 11.5935L40.195 16.6036L31.1151 25.6835C30.649 26.1496 29.6295 27.2297 29.6004 27.2646L8.78979 11.8335L8.81426 11.8265ZM11.5046 50.635L6.49447 47.0534L14.1063 47.2153L12.9004 48.8023L11.5046 50.635ZM36.7392 42.3509L22.8857 52.8686L14.3801 59.3002C14.1546 59.4707 13.8757 59.5554 13.5935 59.5389C13.3112 59.5225 13.044 59.406 12.8398 59.2105L10.7717 57.1423C10.5749 56.9385 10.457 56.6712 10.439 56.3884C10.4211 56.1056 10.5043 55.8256 10.6738 55.5985L14.8683 50.0688L17.3524 46.8064C17.3641 46.7912 17.3687 46.7738 17.3792 46.7575L27.6325 33.229C28.5879 31.9613 29.5911 30.7437 30.6129 29.6101C30.6129 29.6101 32.0111 28.0954 32.6635 27.4359L50.0218 10.0695C53.5041 6.59333 58.0412 4.37066 62.9222 3.74976C62.9222 3.74976 65.2921 3.4608 65.3411 3.4608C65.5076 3.46065 65.6723 3.49596 65.8242 3.5644C65.9761 3.63283 66.1116 3.73281 66.2218 3.85769C66.332 3.98257 66.4144 4.12949 66.4634 4.28867C66.5125 4.44785 66.5271 4.61565 66.5062 4.78091L66.2278 7.04944C65.6052 11.9315 63.3819 16.4695 59.9057 19.9534C59.9057 19.9534 42.3983 37.455 42.2724 37.5785C41.6223 38.2181 41.0223 38.7821 40.4292 39.2959C39.2815 40.3433 38.043 41.3698 36.7392 42.3509ZM58.9701 62.0325L42.7874 40.3154C42.862 40.2455 53.713 29.4446 53.713 29.4446L59.1647 53.563C59.7946 56.3592 59.7298 59.2671 58.9759 62.0325H58.9701Z" fill="#ED413C"/>
<path d="M18.398 49.9301L13.4543 54.8738C13.3431 54.9813 13.2543 55.1098 13.1932 55.252C13.1322 55.3941 13.1 55.547 13.0987 55.7017C13.0973 55.8564 13.1268 56.0099 13.1854 56.1531C13.244 56.2963 13.3305 56.4263 13.4399 56.5357C13.5493 56.6451 13.6794 56.7317 13.8226 56.7902C13.9658 56.8488 14.1192 56.8783 14.2739 56.877C14.4286 56.8756 14.5815 56.8435 14.7236 56.7824C14.8658 56.7213 14.9944 56.6326 15.1018 56.5213L20.0455 51.5776C20.2578 51.3579 20.3752 51.0635 20.3726 50.758C20.3699 50.4525 20.2474 50.1603 20.0313 49.9443C19.8153 49.7283 19.5231 49.6057 19.2176 49.6031C18.9121 49.6004 18.6178 49.7179 18.398 49.9301Z" fill="#ED413C"/>
<path d="M5.99495 36.348C6.21344 36.5664 6.50975 36.6891 6.8187 36.6891C7.12765 36.6891 7.42396 36.5664 7.64246 36.348L17.5881 26.4035C17.8003 26.1838 17.9178 25.8895 17.9151 25.584C17.9125 25.2785 17.7899 24.9862 17.5739 24.7702C17.3579 24.5542 17.0657 24.4317 16.7602 24.429C16.4547 24.4263 16.1603 24.5438 15.9406 24.756L5.99495 34.7005C5.77652 34.919 5.65381 35.2153 5.65381 35.5243C5.65381 35.8332 5.77652 36.1295 5.99495 36.348Z" fill="#ED413C"/>
<path d="M24.9886 8.73656C25.2976 8.7365 25.5939 8.6137 25.8124 8.39518L32.2032 2.00321C32.3145 1.89573 32.4032 1.76717 32.4643 1.62501C32.5254 1.48286 32.5575 1.32997 32.5588 1.17527C32.5602 1.02056 32.5307 0.867134 32.4721 0.723942C32.4135 0.580751 32.327 0.45066 32.2176 0.341262C32.1082 0.231864 31.9781 0.145348 31.8349 0.0867641C31.6917 0.0281797 31.5383 -0.00130037 31.3836 4.39919e-05C31.2289 0.00138835 31.076 0.0335303 30.9339 0.0945942C30.7917 0.155658 30.6631 0.244421 30.5557 0.355704L24.1649 6.74767C24.002 6.91062 23.891 7.1182 23.8461 7.34418C23.8012 7.57017 23.8242 7.8044 23.9124 8.01727C24.0006 8.23014 24.1499 8.41209 24.3414 8.54012C24.533 8.66815 24.7582 8.73652 24.9886 8.73656Z" fill="#ED413C"/>
<path d="M7.28713 21.094C7.39841 20.9866 7.48717 20.858 7.54824 20.7158C7.6093 20.5737 7.64144 20.4208 7.64279 20.2661C7.64413 20.1114 7.61465 19.958 7.55607 19.8148C7.49748 19.6716 7.41097 19.5415 7.30157 19.4321C7.19217 19.3227 7.06208 19.2362 6.91889 19.1776C6.7757 19.119 6.62227 19.0895 6.46757 19.0909C6.31286 19.0922 6.15997 19.1243 6.01782 19.1854C5.87567 19.2465 5.7471 19.3352 5.63962 19.4465L0.355704 24.7304C0.244421 24.8379 0.155658 24.9665 0.0945942 25.1086C0.0335303 25.2508 0.00138835 25.4037 4.39919e-05 25.5584C-0.00130037 25.7131 0.0281797 25.8665 0.086764 26.0097C0.145348 26.1529 0.231864 26.283 0.341262 26.3924C0.45066 26.5018 0.58075 26.5883 0.723942 26.6469C0.867133 26.7055 1.02056 26.735 1.17527 26.7336C1.32997 26.7323 1.48286 26.7001 1.62501 26.6391C1.76717 26.578 1.89573 26.4892 2.00321 26.3779L7.28713 21.094Z" fill="#ED413C"/>
<path d="M51.212 61.606L44.8201 67.9968C44.7088 68.1043 44.62 68.2328 44.559 68.375C44.4979 68.5171 44.4657 68.67 44.4644 68.8247C44.4631 68.9795 44.4925 69.1329 44.5511 69.2761C44.6097 69.4193 44.6962 69.5494 44.8056 69.6588C44.915 69.7682 45.0451 69.8547 45.1883 69.9132C45.3315 69.9718 45.4849 70.0013 45.6396 70C45.7943 69.9986 45.9472 69.9665 46.0894 69.9054C46.2315 69.8444 46.3601 69.7556 46.4676 69.6443L52.8595 63.2535C53.0718 63.0338 53.1892 62.7394 53.1866 62.4339C53.1839 62.1285 53.0614 61.8362 52.8453 61.6202C52.6293 61.4042 52.3371 61.2816 52.0316 61.279C51.7261 61.2763 51.4318 61.3938 51.212 61.606Z" fill="#ED413C"/>
<path d="M46.1854 53.7321C45.9669 53.5137 45.6706 53.391 45.3616 53.391C45.0527 53.391 44.7563 53.5137 44.5379 53.7321L30.9558 67.3142C30.8445 67.4217 30.7558 67.5502 30.6947 67.6924C30.6336 67.8345 30.6015 67.9874 30.6001 68.1421C30.5988 68.2968 30.6283 68.4503 30.6869 68.5935C30.7454 68.7366 30.832 68.8667 30.9414 68.9761C31.0508 69.0855 31.1808 69.172 31.324 69.2306C31.4672 69.2892 31.6207 69.3187 31.7754 69.3174C31.9301 69.316 32.083 69.2839 32.2251 69.2228C32.3673 69.1617 32.4958 69.073 32.6033 68.9617L46.1854 55.3796C46.4038 55.1611 46.5265 54.8648 46.5265 54.5559C46.5265 54.2469 46.4038 53.9506 46.1854 53.7321Z" fill="#ED413C"/>
<path d="M69.4885 45.9278C69.27 45.7094 68.9737 45.5867 68.6647 45.5867C68.3558 45.5867 68.0595 45.7094 67.841 45.9278L63.1804 50.5884C63.0691 50.6959 62.9804 50.8244 62.9193 50.9666C62.8582 51.1087 62.8261 51.2616 62.8248 51.4163C62.8234 51.571 62.8529 51.7245 62.9115 51.8676C62.9701 52.0108 63.0566 52.1409 63.166 52.2503C63.2754 52.3597 63.4055 52.4462 63.5486 52.5048C63.6918 52.5634 63.8453 52.5929 64 52.5915C64.1547 52.5902 64.3076 52.5581 64.4497 52.497C64.5919 52.4359 64.7204 52.3472 64.8279 52.2359L69.4885 47.5753C69.7069 47.3568 69.8296 47.0605 69.8296 46.7516C69.8296 46.4426 69.7069 46.1463 69.4885 45.9278Z" fill="#ED413C"/>
</svg>
