<svg width="70" height="70" viewBox="0 0 70 70" fill="none" xmlns="http://www.w3.org/2000/svg">
<path d="M68.8336 0H61.8336C61.5242 0 61.2275 0.122916 61.0087 0.341708C60.7899 0.5605 60.667 0.857246 60.667 1.16666V1.61233L58.1808 0.368666C57.6948 0.126636 57.1593 0.000450731 56.6163 0H39.5176C38.7236 0.000752874 37.9535 0.271457 37.3336 0.767666L32.4558 4.66666H12.8337C12.5242 4.66666 12.2275 4.78958 12.0087 5.00837C11.7899 5.22716 11.667 5.52391 11.667 5.83332V24.5C11.667 24.8094 11.7899 25.1061 12.0087 25.3249C12.2275 25.5437 12.5242 25.6666 12.8337 25.6666H47.8336C48.1431 25.6666 48.4398 25.5437 48.6586 25.3249C48.8774 25.1061 49.0003 24.8094 49.0003 24.5V15.6893C50.4998 16.281 52.115 16.5205 53.7217 16.3894C55.3283 16.2584 56.8834 15.7602 58.2671 14.9333L59.827 14H60.667V15.1666C60.667 15.4761 60.7899 15.7728 61.0087 15.9916C61.2275 16.2104 61.5242 16.3333 61.8336 16.3333H68.8336C69.143 16.3333 69.4398 16.2104 69.6586 15.9916C69.8774 15.7728 70.0003 15.4761 70.0003 15.1666V1.16666C70.0003 0.857246 69.8774 0.5605 69.6586 0.341708C69.4398 0.122916 69.143 0 68.8336 0ZM14.0003 23.3333V6.99999H41.9175L40.6096 8.30899C39.9721 8.96909 39.6193 9.8532 39.6273 10.7709C39.6353 11.6886 40.0033 12.5664 40.6523 13.2153C41.3012 13.8643 42.179 14.2324 43.0967 14.2403C44.0144 14.2483 44.8985 13.8955 45.5586 13.258L46.667 12.1496V23.3333H14.0003ZM59.4933 11.6666C59.2839 11.6676 59.0787 11.7252 58.8995 11.8335L57.0666 12.9325C55.979 13.5821 54.7557 13.9709 53.4927 14.0685C52.2296 14.166 50.9611 13.9697 49.7866 13.4948L49.0003 13.1751V9.81632L50.482 8.33465L51.084 8.53532C52.7612 9.09063 54.5727 9.09063 56.25 8.53532L57.5333 8.10715C57.8272 8.00938 58.0703 7.79884 58.209 7.52185C58.3477 7.24485 58.3707 6.9241 58.273 6.63016C58.1752 6.33621 57.9646 6.09314 57.6877 5.95443C57.4107 5.81571 57.0899 5.79271 56.796 5.89049L55.5126 6.31982C54.3149 6.71646 53.0213 6.71646 51.8236 6.31982L50.5403 5.89049C50.3348 5.82212 50.1143 5.81231 49.9035 5.86218C49.6927 5.91204 49.4999 6.01961 49.3468 6.17282L47.0135 8.50616L43.909 11.6083C43.6902 11.827 43.3935 11.9499 43.0841 11.9499C42.7748 11.9499 42.4781 11.827 42.2593 11.6083C42.0406 11.3895 41.9177 11.0928 41.9177 10.7835C41.9177 10.4741 42.0406 10.1774 42.2593 9.95865L46.793 5.42383C47.0055 5.20379 47.1231 4.90909 47.1204 4.60319C47.1178 4.2973 46.9951 4.00468 46.7788 3.78837C46.5624 3.57206 46.2698 3.44937 45.9639 3.44671C45.658 3.44405 45.3633 3.56164 45.1433 3.77416L44.2508 4.66666H36.1915L38.7885 2.58883C38.9955 2.42332 39.2526 2.33321 39.5176 2.33333H56.6163C56.7972 2.33396 56.9755 2.37585 57.1378 2.45583L60.667 4.22099V11.6585L59.4933 11.6666ZM67.667 14H63.0003V2.33333H67.667V14Z" fill="#ED413C"/>
<path d="M30.3335 11.6666C30.6429 11.6666 30.9397 11.7895 31.1585 12.0083C31.3772 12.2271 31.5002 12.5239 31.5002 12.8333H33.8335C33.8305 12.112 33.6047 11.4092 33.1871 10.8211C32.7694 10.2331 32.1802 9.78839 31.5002 9.54796V8.16663H29.1668V9.54796C28.389 9.82191 27.7333 10.3623 27.3157 11.0734C26.8982 11.7845 26.7458 12.6205 26.8855 13.4332C27.0253 14.2459 27.4481 14.9829 28.0792 15.5137C28.7103 16.0445 29.5089 16.3348 30.3335 16.3333C30.5642 16.3333 30.7898 16.4017 30.9817 16.5299C31.1735 16.6581 31.3231 16.8403 31.4114 17.0535C31.4997 17.2667 31.5228 17.5012 31.4777 17.7276C31.4327 17.9539 31.3216 18.1617 31.1585 18.3249C30.9953 18.4881 30.7874 18.5992 30.5611 18.6442C30.3348 18.6892 30.1002 18.6661 29.887 18.5778C29.6739 18.4895 29.4916 18.34 29.3634 18.1481C29.2353 17.9563 29.1668 17.7307 29.1668 17.4999H26.8335C26.8365 18.2212 27.0623 18.924 27.4799 19.5121C27.8976 20.1002 28.4868 20.5448 29.1668 20.7853V22.1666H31.5002V20.7853C32.278 20.5113 32.9337 19.9709 33.3512 19.2598C33.7688 18.5487 33.9212 17.7128 33.7814 16.9001C33.6417 16.0874 33.2189 15.3503 32.5878 14.8195C31.9567 14.2887 31.1581 13.9984 30.3335 14C30.0241 14 29.7273 13.877 29.5085 13.6582C29.2897 13.4395 29.1668 13.1427 29.1668 12.8333C29.1668 12.5239 29.2897 12.2271 29.5085 12.0083C29.7273 11.7895 30.0241 11.6666 30.3335 11.6666Z" fill="#ED413C"/>
<path d="M23.3335 14H21.0002C20.6907 14 20.394 14.1229 20.1752 14.3417C19.9564 14.5605 19.8335 14.8572 19.8335 15.1667C19.8335 15.4761 19.9564 15.7728 20.1752 15.9916C20.394 16.2104 20.6907 16.3333 21.0002 16.3333H23.3335C23.6429 16.3333 23.9397 16.2104 24.1585 15.9916C24.3772 15.7728 24.5002 15.4761 24.5002 15.1667C24.5002 14.8572 24.3772 14.5605 24.1585 14.3417C23.9397 14.1229 23.6429 14 23.3335 14Z" fill="#ED413C"/>
<path d="M39.6665 14H37.3332C37.0238 14 36.727 14.1229 36.5082 14.3417C36.2894 14.5605 36.1665 14.8572 36.1665 15.1667C36.1665 15.4761 36.2894 15.7728 36.5082 15.9916C36.727 16.2104 37.0238 16.3333 37.3332 16.3333H39.6665C39.9759 16.3333 40.2727 16.2104 40.4915 15.9916C40.7103 15.7728 40.8332 15.4761 40.8332 15.1667C40.8332 14.8572 40.7103 14.5605 40.4915 14.3417C40.2727 14.1229 39.9759 14 39.6665 14Z" fill="#ED413C"/>
<path d="M48.3676 55.735C48.1392 55.3352 47.8339 54.9846 47.4693 54.7034C47.1047 54.4222 46.6881 54.216 46.2434 54.0967C45.7986 53.9774 45.3347 53.9473 44.8783 54.0083C44.4219 54.0692 43.9821 54.2199 43.5843 54.4517L36.0861 58.7683C35.9188 57.9854 35.4881 57.2834 34.8658 56.7796C34.2435 56.2758 33.4673 56.0006 32.6666 55.9998H23.6833L23.45 55.8435C21.3639 54.4475 18.9133 53.6959 16.4032 53.6822C13.8932 53.6685 11.4345 54.3933 9.33333 55.7665V54.8332C9.33333 54.5238 9.21041 54.227 8.99162 54.0082C8.77283 53.7894 8.47608 53.6665 8.16666 53.6665H1.16667C0.857247 53.6665 0.560501 53.7894 0.341708 54.0082C0.122916 54.227 0 54.5238 0 54.8332V68.8331C0 69.1426 0.122916 69.4393 0.341708 69.6581C0.560501 69.8769 0.857247 69.9998 1.16667 69.9998H8.16666C8.47608 69.9998 8.77283 69.8769 8.99162 69.6581C9.21041 69.4393 9.33333 69.1426 9.33333 68.8331V68.6745L10.423 69.3978C10.9996 69.7901 11.6809 69.9998 12.3783 69.9998H29.7033C30.3181 70.0049 30.9227 69.8436 31.4533 69.5331L47.0866 60.5148C47.6187 60.2053 48.0603 59.7617 48.3674 59.2282C48.6745 58.6947 48.8363 58.09 48.8366 57.4745C48.8364 56.8635 48.6746 56.2633 48.3676 55.735ZM7 67.6665H2.33333V55.9998H7V67.6665ZM45.92 58.4895L30.2691 67.5183C30.0976 67.6185 29.9019 67.6698 29.7033 67.6665H12.3783C12.1462 67.6669 11.9195 67.5965 11.7285 67.4647L9.33333 65.8745V58.3332C9.56326 58.3333 9.78812 58.2655 9.97966 58.1383L10.5093 57.7883C12.2328 56.6348 14.26 56.019 16.3339 56.019C18.4078 56.019 20.435 56.6348 22.1585 57.7883L22.687 58.1383C22.8785 58.2655 23.1034 58.3333 23.3333 58.3332H32.6666C32.9761 58.3332 33.2728 58.4561 33.4916 58.6749C33.7104 58.8937 33.8333 59.1904 33.8333 59.4998C33.8333 59.8092 33.7104 60.106 33.4916 60.3248C33.2728 60.5436 32.9761 60.6665 32.6666 60.6665H25.6667C25.3572 60.6665 25.0605 60.7894 24.8417 61.0082C24.6229 61.227 24.5 61.5237 24.5 61.8332C24.5 62.1426 24.6229 62.4393 24.8417 62.6581C25.0605 62.8769 25.3572 62.9998 25.6667 62.9998H32.6666C33.5204 62.997 34.3432 62.6797 34.9778 62.1085L44.7626 56.4665C44.8926 56.3899 45.0365 56.3401 45.186 56.3201C45.3355 56.3001 45.4875 56.3102 45.633 56.3498C45.7825 56.3894 45.9226 56.4586 46.045 56.5531C46.1675 56.6477 46.2697 56.7658 46.3458 56.9005C46.448 57.0729 46.5024 57.2694 46.5033 57.4698C46.5036 57.6759 46.45 57.8785 46.3476 58.0575C46.2453 58.2364 46.0978 58.3853 45.92 58.4895Z" fill="#ED413C"/>
<path d="M45.5 30.3333H15.1667C14.8572 30.3333 14.5605 30.4562 14.3417 30.675C14.1229 30.8938 14 31.1905 14 31.4999V52.4999C14 52.8093 14.1229 53.1061 14.3417 53.3248C14.5605 53.5436 14.8572 53.6666 15.1667 53.6666H45.5C45.8094 53.6666 46.1061 53.5436 46.3249 53.3248C46.5437 53.1061 46.6666 52.8093 46.6666 52.4999V31.4999C46.6666 31.1905 46.5437 30.8938 46.3249 30.675C46.1061 30.4562 45.8094 30.3333 45.5 30.3333ZM31.5 32.6666V37.3332H29.1667V32.6666H31.5ZM44.3333 51.3332H16.3333V32.6666H26.8333V38.4999C26.8333 38.8093 26.9562 39.1061 27.175 39.3249C27.3938 39.5437 27.6906 39.6666 28 39.6666H32.6667C32.9761 39.6666 33.2728 39.5437 33.4916 39.3249C33.7104 39.1061 33.8333 38.8093 33.8333 38.4999V32.6666H44.3333V51.3332Z" fill="#ED413C"/>
<path d="M23.3333 44.3333H18.6667C18.3572 44.3333 18.0605 44.4562 17.8417 44.675C17.6229 44.8938 17.5 45.1905 17.5 45.4999C17.5 45.8093 17.6229 46.1061 17.8417 46.3249C18.0605 46.5437 18.3572 46.6666 18.6667 46.6666H23.3333C23.6427 46.6666 23.9395 46.5437 24.1583 46.3249C24.3771 46.1061 24.5 45.8093 24.5 45.4999C24.5 45.1905 24.3771 44.8938 24.1583 44.675C23.9395 44.4562 23.6427 44.3333 23.3333 44.3333Z" fill="#ED413C"/>
<path d="M27.9998 44.3333H26.8332C26.5238 44.3333 26.227 44.4562 26.0082 44.675C25.7894 44.8938 25.6665 45.1905 25.6665 45.4999C25.6665 45.8093 25.7894 46.1061 26.0082 46.3249C26.227 46.5437 26.5238 46.6666 26.8332 46.6666H27.9998C28.3093 46.6666 28.606 46.5437 28.8248 46.3249C29.0436 46.1061 29.1665 45.8093 29.1665 45.4999C29.1665 45.1905 29.0436 44.8938 28.8248 44.675C28.606 44.4562 28.3093 44.3333 27.9998 44.3333Z" fill="#ED413C"/>
<path d="M23.3333 47.8333H18.6667C18.3572 47.8333 18.0605 47.9562 17.8417 48.175C17.6229 48.3938 17.5 48.6905 17.5 48.9999C17.5 49.3093 17.6229 49.6061 17.8417 49.8249C18.0605 50.0437 18.3572 50.1666 18.6667 50.1666H23.3333C23.6427 50.1666 23.9395 50.0437 24.1583 49.8249C24.3771 49.6061 24.5 49.3093 24.5 48.9999C24.5 48.6905 24.3771 48.3938 24.1583 48.175C23.9395 47.9562 23.6427 47.8333 23.3333 47.8333Z" fill="#ED413C"/>
<path d="M27.9998 47.8333H26.8332C26.5238 47.8333 26.227 47.9562 26.0082 48.175C25.7894 48.3938 25.6665 48.6905 25.6665 48.9999C25.6665 49.3093 25.7894 49.6061 26.0082 49.8249C26.227 50.0437 26.5238 50.1666 26.8332 50.1666H27.9998C28.3093 50.1666 28.606 50.0437 28.8248 49.8249C29.0436 49.6061 29.1665 49.3093 29.1665 48.9999C29.1665 48.6905 29.0436 48.3938 28.8248 48.175C28.606 47.9562 28.3093 47.8333 27.9998 47.8333Z" fill="#ED413C"/>
</svg>
