<svg width="485" height="630" viewBox="0 0 485 630" fill="none" xmlns="http://www.w3.org/2000/svg">
<mask id="mask0" mask-type="alpha" maskUnits="userSpaceOnUse" x="0" y="0" width="485" height="630">
<path d="M0 630H485V0H0V630Z" fill="#C4C4C4"/>
</mask>
<g mask="url(#mask0)">
<path d="M-165.843 -46.2706C194.396 7.8953 224.743 189.84 311.553 352.86C398.364 515.879 599.105 792.229 848.655 844.356C1048.3 886.058 1063.86 954.326 1046.68 983.247" stroke="white"/>
<path d="M-141.161 -68.728C219.078 -14.5621 249.425 167.383 336.236 330.402C423.046 493.421 623.787 769.771 873.337 821.899C1072.98 863.601 1088.54 931.868 1071.36 960.789" stroke="white"/>
<path d="M-116.479 -91.1855C243.76 -37.0196 274.108 144.926 360.918 307.945C447.728 470.964 648.47 747.314 898.02 799.441C1097.66 841.143 1113.22 909.411 1096.05 938.332" stroke="white"/>
<path d="M-91.7966 -113.643C268.443 -59.4771 298.79 122.468 385.6 285.487C472.41 448.506 673.152 724.856 922.702 776.984C1122.34 818.686 1137.9 886.953 1120.73 915.874" stroke="white"/>
<path d="M-67.1145 -136.1C293.125 -81.9345 323.472 100.011 410.282 263.03C497.092 426.049 697.834 702.399 947.384 754.526C1147.02 796.228 1162.58 864.496 1145.41 893.417" stroke="white"/>
<path d="M-42.4322 -158.558C317.807 -104.392 348.154 77.5532 434.964 240.572C521.775 403.592 722.516 679.942 972.066 732.069C1171.71 773.771 1187.27 842.038 1170.09 870.959" stroke="white"/>
<path d="M-17.75 -181.015C342.489 -126.849 372.837 55.0958 459.647 218.115C546.457 381.134 747.198 657.484 996.748 709.612C1196.39 751.314 1211.95 819.581 1194.77 848.502" stroke="white"/>
<path d="M6.93216 -203.473C367.171 -149.307 397.519 32.6383 484.329 195.657C571.139 358.677 771.881 635.027 1021.43 687.154C1221.07 728.856 1236.63 797.124 1219.46 826.045" stroke="white"/>
<path d="M31.6144 -225.93C391.854 -171.764 422.201 10.1809 509.011 173.2C595.821 336.219 796.563 612.569 1046.11 664.697C1245.75 706.399 1261.31 774.666 1244.14 803.587" stroke="white"/>
<path d="M56.2965 -248.388C416.536 -194.222 446.883 -12.2766 533.693 150.743C620.503 313.762 821.245 590.112 1070.79 642.239C1270.43 683.941 1286 752.209 1268.82 781.13" stroke="white"/>
<path d="M80.9788 -270.845C441.218 -216.679 471.565 -34.734 558.375 128.285C645.186 291.304 845.927 567.654 1095.48 619.782C1295.12 661.484 1310.68 729.751 1293.5 758.672" stroke="white"/>
<path d="M105.661 -293.303C465.9 -239.137 496.247 -57.1915 583.058 105.828C669.868 268.847 870.609 545.197 1120.16 597.324C1319.8 639.026 1335.36 707.294 1318.19 736.215" stroke="white"/>
<path d="M130.343 -315.76C490.582 -261.594 520.93 -79.6489 607.74 83.3702C694.55 246.389 895.292 522.739 1144.84 574.867C1344.48 616.569 1360.04 684.836 1342.87 713.757" stroke="white"/>
<path d="M155.025 -338.217C515.265 -284.052 545.612 -102.106 632.422 60.9128C719.232 223.932 919.974 500.282 1169.52 552.409C1369.16 594.111 1384.72 662.379 1367.55 691.3" stroke="white"/>
<g opacity="0.32">
<path d="M-165.843 -46.2706C194.396 7.8953 224.743 189.84 311.553 352.86C398.364 515.879 599.105 792.229 848.655 844.356C1048.3 886.058 1063.86 954.326 1046.68 983.247" stroke="#FF7575"/>
<path d="M-141.161 -68.728C219.078 -14.5621 249.425 167.383 336.236 330.402C423.046 493.421 623.787 769.771 873.337 821.899C1072.98 863.601 1088.54 931.868 1071.36 960.789" stroke="#FF7575"/>
<path d="M-116.479 -91.1855C243.76 -37.0196 274.108 144.926 360.918 307.945C447.728 470.964 648.47 747.314 898.02 799.441C1097.66 841.143 1113.22 909.411 1096.05 938.332" stroke="#FF7575"/>
<path d="M-91.7966 -113.643C268.443 -59.4771 298.79 122.468 385.6 285.487C472.41 448.506 673.152 724.856 922.702 776.984C1122.34 818.686 1137.9 886.953 1120.73 915.874" stroke="#FF7575"/>
<path d="M-67.1145 -136.1C293.125 -81.9345 323.472 100.011 410.282 263.03C497.092 426.049 697.834 702.399 947.384 754.526C1147.02 796.228 1162.58 864.496 1145.41 893.417" stroke="#FF7575"/>
<path d="M-42.4322 -158.558C317.807 -104.392 348.154 77.5532 434.964 240.572C521.775 403.592 722.516 679.942 972.066 732.069C1171.71 773.771 1187.27 842.038 1170.09 870.959" stroke="#FF7575"/>
<path d="M-17.75 -181.015C342.489 -126.849 372.837 55.0958 459.647 218.115C546.457 381.134 747.198 657.484 996.748 709.612C1196.39 751.314 1211.95 819.581 1194.77 848.502" stroke="#FF7575"/>
<path d="M6.93216 -203.473C367.171 -149.307 397.519 32.6383 484.329 195.657C571.139 358.677 771.881 635.027 1021.43 687.154C1221.07 728.856 1236.63 797.124 1219.46 826.045" stroke="#FF7575"/>
<path d="M31.6144 -225.93C391.854 -171.764 422.201 10.1809 509.011 173.2C595.821 336.219 796.563 612.569 1046.11 664.697C1245.75 706.399 1261.31 774.666 1244.14 803.587" stroke="#FF7575"/>
<path d="M56.2965 -248.388C416.536 -194.222 446.883 -12.2766 533.693 150.743C620.503 313.762 821.245 590.112 1070.79 642.239C1270.43 683.941 1286 752.209 1268.82 781.13" stroke="#FF7575"/>
<path d="M80.9788 -270.845C441.218 -216.679 471.565 -34.734 558.375 128.285C645.186 291.304 845.927 567.654 1095.48 619.782C1295.12 661.484 1310.68 729.751 1293.5 758.672" stroke="#FF7575"/>
<path d="M105.661 -293.303C465.9 -239.137 496.247 -57.1915 583.058 105.828C669.868 268.847 870.609 545.197 1120.16 597.324C1319.8 639.026 1335.36 707.294 1318.19 736.215" stroke="#FF7575"/>
<path d="M130.343 -315.76C490.582 -261.594 520.93 -79.6489 607.74 83.3702C694.55 246.389 895.292 522.739 1144.84 574.867C1344.48 616.569 1360.04 684.836 1342.87 713.757" stroke="#FF7575"/>
<path d="M155.025 -338.217C515.265 -284.052 545.612 -102.106 632.422 60.9128C719.232 223.932 919.974 500.282 1169.52 552.409C1369.16 594.111 1384.72 662.379 1367.55 691.3" stroke="#FF7575"/>
</g>
</g>
</svg>
