<svg width="1110" height="1131" viewBox="0 0 1110 1131" fill="none" xmlns="http://www.w3.org/2000/svg">
<g opacity="0.32">
<mask id="mask0" mask-type="alpha" maskUnits="userSpaceOnUse" x="289" y="285" width="821" height="600">
<rect x="290" y="885" width="600" height="820" transform="rotate(-90 290 885)" fill="#C4C4C4"/>
</mask>
<g mask="url(#mask0)">
<path d="M437.965 1499.77C521.824 1145.35 705.618 1130.11 875.242 1057.05C1044.87 984.002 1336.86 806.785 1409.5 562.473C1467.61 367.023 1536.92 357.145 1564.31 376.637" stroke="#FF7575"/>
<path d="M417.638 1473.33C501.496 1118.91 685.291 1103.67 854.915 1030.62C1024.54 957.563 1316.53 780.346 1389.17 536.034C1447.29 340.584 1516.59 330.706 1543.98 350.198" stroke="#FF7575"/>
<path d="M397.312 1446.89C481.17 1092.47 664.965 1077.23 834.588 1004.18C1004.21 931.124 1296.2 753.907 1368.85 509.595C1426.96 314.145 1496.27 304.267 1523.66 323.759" stroke="#FF7575"/>
<path d="M376.984 1420.45C460.843 1066.03 644.637 1050.79 814.261 977.737C983.884 904.685 1275.88 727.468 1348.52 483.156C1406.63 287.706 1475.94 277.828 1503.33 297.32" stroke="#FF7575"/>
<path d="M356.658 1394.01C440.516 1039.59 624.311 1024.35 793.934 951.298C963.558 878.246 1255.55 701.029 1328.19 456.717C1386.31 261.267 1455.61 251.389 1483 270.881" stroke="#FF7575"/>
<path d="M336.331 1367.57C420.189 1013.16 603.984 997.912 773.607 924.859C943.23 851.807 1235.22 674.59 1307.86 430.278C1365.98 234.828 1435.29 224.95 1462.68 244.442" stroke="#FF7575"/>
<path d="M316.004 1341.13C399.862 986.716 583.657 971.473 753.28 898.42C922.904 825.368 1214.9 648.151 1287.54 403.839C1345.65 208.389 1414.96 198.511 1442.35 218.003" stroke="#FF7575"/>
<path d="M295.677 1314.69C379.535 960.278 563.33 945.034 732.953 871.981C902.577 798.929 1194.57 621.712 1267.21 377.4C1325.33 181.95 1394.63 172.072 1422.02 191.564" stroke="#FF7575"/>
<path d="M275.35 1288.25C359.208 933.839 543.003 918.595 712.627 845.543C882.25 772.49 1174.24 595.274 1246.88 350.961C1305 155.511 1374.31 145.633 1401.7 165.125" stroke="#FF7575"/>
<path d="M255.023 1261.81C338.881 907.4 522.676 892.156 692.299 819.104C861.923 746.051 1153.91 568.835 1226.56 324.522C1284.67 129.073 1353.98 119.194 1381.37 138.687" stroke="#FF7575"/>
<path d="M234.696 1235.38C318.555 880.96 502.349 865.717 671.973 792.664C841.596 719.612 1133.59 542.395 1206.23 298.083C1264.34 102.633 1333.65 92.7551 1361.04 112.247" stroke="#FF7575"/>
<path d="M214.369 1208.94C298.227 854.522 482.022 839.278 651.646 766.225C821.269 693.173 1113.26 515.956 1185.9 271.644C1244.02 76.1944 1313.33 66.3162 1340.71 85.8084" stroke="#FF7575"/>
<path d="M194.042 1182.5C277.901 828.083 461.696 812.839 631.319 739.787C800.942 666.734 1092.93 489.518 1165.58 245.205C1223.69 49.7555 1293 39.8774 1320.39 59.3695" stroke="#FF7575"/>
<path d="M173.715 1156.06C257.574 801.644 441.368 786.4 610.992 713.348C780.615 640.295 1072.61 463.079 1145.25 218.766C1203.36 23.3166 1272.67 13.4385 1300.06 32.9306" stroke="#FF7575"/>
</g>
</g>
</svg>
