<svg width="1440" height="350" viewBox="0 0 1440 350" fill="none" xmlns="http://www.w3.org/2000/svg">
<mask id="mask0" mask-type="alpha" maskUnits="userSpaceOnUse" x="0" y="42" width="1440" height="266">
<rect y="42" width="1440" height="266" fill="#C4C4C4"/>
</mask>
<g mask="url(#mask0)">
<path d="M-69 534.028C213.5 304.028 368.5 404.028 547.5 449.528C726.5 495.028 1066 532.528 1272.5 383.028C1437.7 263.428 1498.67 297.861 1508.5 330.028" stroke="#FF7575"/>
<path d="M-69 500.658C213.5 270.658 368.5 370.658 547.5 416.158C726.5 461.658 1066 499.158 1272.5 349.658C1437.7 230.058 1498.67 264.491 1508.5 296.658" stroke="#FF7575"/>
<path d="M-69 467.288C213.5 237.288 368.5 337.288 547.5 382.788C726.5 428.288 1066 465.788 1272.5 316.288C1437.7 196.688 1498.67 231.121 1508.5 263.288" stroke="#FF7575"/>
<path d="M-69 433.918C213.5 203.918 368.5 303.918 547.5 349.418C726.5 394.918 1066 432.418 1272.5 282.918C1437.7 163.318 1498.67 197.751 1508.5 229.918" stroke="#FF7575"/>
<path d="M-69 400.548C213.5 170.548 368.5 270.548 547.5 316.048C726.5 361.548 1066 399.048 1272.5 249.548C1437.7 129.948 1498.67 164.381 1508.5 196.548" stroke="#FF7575"/>
<path d="M-69 367.178C213.5 137.178 368.5 237.178 547.5 282.678C726.5 328.178 1066 365.678 1272.5 216.178C1437.7 96.5782 1498.67 131.012 1508.5 163.178" stroke="#FF7575"/>
<path d="M-69 333.808C213.5 103.808 368.5 203.808 547.5 249.308C726.5 294.808 1066 332.308 1272.5 182.808C1437.7 63.2084 1498.67 97.6417 1508.5 129.808" stroke="#FF7575"/>
<path d="M-69 300.438C213.5 70.4384 368.5 170.438 547.5 215.938C726.5 261.438 1066 298.938 1272.5 149.438C1437.7 29.8385 1498.67 64.2718 1508.5 96.4385" stroke="#FF7575"/>
<path d="M-69 267.069C213.5 37.0685 368.5 137.069 547.5 182.569C726.5 228.069 1066 265.569 1272.5 116.069C1437.7 -3.53138 1498.67 30.9019 1508.5 63.0686" stroke="#FF7575"/>
<path d="M-69 233.699C213.5 3.69865 368.5 103.699 547.5 149.199C726.5 194.699 1066 232.199 1272.5 82.6987C1437.7 -36.9013 1498.67 -2.46792 1508.5 29.6987" stroke="#FF7575"/>
<path d="M-69 200.329C213.5 -29.6712 368.5 70.3288 547.5 115.829C726.5 161.329 1066 198.829 1272.5 49.3289C1437.7 -70.2711 1498.67 -35.8378 1508.5 -3.67113" stroke="#FF7575"/>
<path d="M-69 166.959C213.5 -63.0411 368.5 36.9589 547.5 82.4589C726.5 127.959 1066 165.459 1272.5 15.959C1437.7 -103.641 1498.67 -69.2077 1508.5 -37.041" stroke="#FF7575"/>
<path d="M-69 133.589C213.5 -96.411 368.5 3.58904 547.5 49.089C726.5 94.589 1066 132.089 1272.5 -17.4109C1437.7 -137.011 1498.67 -102.578 1508.5 -70.4109" stroke="#FF7575"/>
<path d="M-69 100.219C213.5 -129.781 368.5 -29.7808 547.5 15.7192C726.5 61.2192 1066 98.7193 1272.5 -50.7807C1437.7 -170.381 1498.67 -135.947 1508.5 -103.781" stroke="#FF7575"/>
<path d="M-69 66.8493C213.5 -163.151 368.5 -63.1507 547.5 -17.6507C726.5 27.8493 1066 65.3494 1272.5 -84.1506C1437.7 -203.751 1498.67 -169.317 1508.5 -137.151" stroke="#FF7575"/>
</g>
<g opacity="0.32">
<mask id="mask1" mask-type="alpha" maskUnits="userSpaceOnUse" x="-69" y="0" width="1578" height="350">
<rect x="-69" width="1578" height="350" fill="#C4C4C4"/>
</mask>
<g mask="url(#mask1)">
<path d="M-69 567.397C213.5 337.397 368.5 437.397 547.5 482.897C726.5 528.397 1066 565.897 1272.5 416.397C1437.7 296.797 1498.67 331.231 1508.5 363.397" stroke="#ED413C"/>
<path d="M-69 534.028C213.5 304.028 368.5 404.028 547.5 449.528C726.5 495.028 1066 532.528 1272.5 383.028C1437.7 263.428 1498.67 297.861 1508.5 330.028" stroke="#ED413C"/>
<path d="M-69 500.658C213.5 270.658 368.5 370.658 547.5 416.158C726.5 461.658 1066 499.158 1272.5 349.658C1437.7 230.058 1498.67 264.491 1508.5 296.658" stroke="#ED413C"/>
<path d="M-69 467.288C213.5 237.288 368.5 337.288 547.5 382.788C726.5 428.288 1066 465.788 1272.5 316.288C1437.7 196.688 1498.67 231.121 1508.5 263.288" stroke="#ED413C"/>
<path d="M-69 433.918C213.5 203.918 368.5 303.918 547.5 349.418C726.5 394.918 1066 432.418 1272.5 282.918C1437.7 163.318 1498.67 197.751 1508.5 229.918" stroke="#ED413C"/>
<path d="M-69 400.548C213.5 170.548 368.5 270.548 547.5 316.048C726.5 361.548 1066 399.048 1272.5 249.548C1437.7 129.948 1498.67 164.381 1508.5 196.548" stroke="#ED413C"/>
<path d="M-69 367.178C213.5 137.178 368.5 237.178 547.5 282.678C726.5 328.178 1066 365.678 1272.5 216.178C1437.7 96.5782 1498.67 131.012 1508.5 163.178" stroke="#ED413C"/>
<path d="M-69 333.808C213.5 103.808 368.5 203.808 547.5 249.308C726.5 294.808 1066 332.308 1272.5 182.808C1437.7 63.2084 1498.67 97.6417 1508.5 129.808" stroke="#ED413C"/>
<path d="M-69 300.438C213.5 70.4384 368.5 170.438 547.5 215.938C726.5 261.438 1066 298.938 1272.5 149.438C1437.7 29.8385 1498.67 64.2718 1508.5 96.4385" stroke="#ED413C"/>
<path d="M-69 267.069C213.5 37.0685 368.5 137.069 547.5 182.569C726.5 228.069 1066 265.569 1272.5 116.069C1437.7 -3.53138 1498.67 30.9019 1508.5 63.0686" stroke="#ED413C"/>
<path d="M-69 233.699C213.5 3.69865 368.5 103.699 547.5 149.199C726.5 194.699 1066 232.199 1272.5 82.6987C1437.7 -36.9013 1498.67 -2.46792 1508.5 29.6987" stroke="#ED413C"/>
<path d="M-69 200.329C213.5 -29.6712 368.5 70.3288 547.5 115.829C726.5 161.329 1066 198.829 1272.5 49.3289C1437.7 -70.2711 1498.67 -35.8378 1508.5 -3.67113" stroke="#ED413C"/>
<path d="M-69 166.959C213.5 -63.0411 368.5 36.9589 547.5 82.4589C726.5 127.959 1066 165.459 1272.5 15.959C1437.7 -103.641 1498.67 -69.2077 1508.5 -37.041" stroke="#ED413C"/>
<path d="M-69 133.589C213.5 -96.411 368.5 3.58904 547.5 49.089C726.5 94.589 1066 132.089 1272.5 -17.4109C1437.7 -137.011 1498.67 -102.578 1508.5 -70.4109" stroke="#ED413C"/>
<path d="M-69 100.219C213.5 -129.781 368.5 -29.7808 547.5 15.7192C726.5 61.2192 1066 98.7193 1272.5 -50.7807C1437.7 -170.381 1498.67 -135.947 1508.5 -103.781" stroke="#ED413C"/>
<path d="M-69 66.8493C213.5 -163.151 368.5 -63.1507 547.5 -17.6507C726.5 27.8493 1066 65.3494 1272.5 -84.1506C1437.7 -203.751 1498.67 -169.317 1508.5 -137.151" stroke="#ED413C"/>
<path d="M-69 33.4794C213.5 -196.521 368.5 -96.5206 547.5 -51.0206C726.5 -5.52058 1066 31.9795 1272.5 -117.52C1437.7 -237.12 1498.67 -202.687 1508.5 -170.52" stroke="#ED413C"/>
<path d="M-69 0.109543C213.5 -229.89 368.5 -129.89 547.5 -84.3905C726.5 -38.8905 1066 -1.39037 1272.5 -150.89C1437.7 -270.49 1498.67 -236.057 1508.5 -203.89" stroke="#ED413C"/>
</g>
</g>
</svg>
