<svg width="18" height="16" viewBox="0 0 18 16" fill="none" xmlns="http://www.w3.org/2000/svg">
<path d="M17.0313 3.67812C17.1469 3.2875 17.0313 3 16.4751 3H14.6344C14.1657 3 13.9501 3.24687 13.8344 3.52187C13.8344 3.52187 12.8969 5.80625 11.5719 7.2875C11.1438 7.71562 10.9469 7.85312 10.7125 7.85312C10.5969 7.85312 10.4188 7.71562 10.4188 7.325V3.67812C10.4188 3.20937 10.2875 3 9.90005 3H7.0063C6.71255 3 6.53755 3.21875 6.53755 3.42187C6.53755 3.86562 7.20005 3.96875 7.2688 5.21875V7.93125C7.2688 8.525 7.16255 8.63437 6.92817 8.63437C6.30317 8.63437 4.78442 6.34062 3.88442 3.71562C3.70317 3.20625 3.52505 3 3.05317 3H1.21255C0.687549 3 0.581299 3.24687 0.581299 3.52187C0.581299 4.00937 1.2063 6.43125 3.49067 9.63125C5.01255 11.8156 7.1563 13 9.1063 13C10.2782 13 10.4219 12.7375 10.4219 12.2844C10.4219 10.1969 10.3157 10 10.9032 10C11.175 10 11.6438 10.1375 12.7376 11.1906C13.9876 12.4406 14.1938 13 14.8938 13H16.7344C17.2594 13 17.5251 12.7375 17.3719 12.2187C17.0219 11.1281 14.6563 8.88437 14.5501 8.73437C14.2782 8.38437 14.3563 8.22812 14.5501 7.91562C14.5532 7.9125 16.8001 4.75 17.0313 3.67812Z" fill="white"/>
</svg>
