<svg width="58" height="46" viewBox="0 0 58 46" fill="none" xmlns="http://www.w3.org/2000/svg">
<path d="M56.55 31.625H55.1V21.9129C55.1 20.7719 54.6378 19.6758 53.8222 18.8672L44.7688 9.8918C43.9531 9.0832 42.8475 8.625 41.6966 8.625H37.7V4.3125C37.7 1.93164 35.7516 0 33.35 0H4.35C1.94844 0 0 1.93164 0 4.3125V33.0625C0 35.4434 1.94844 37.375 4.35 37.375H5.8C5.8 42.1367 9.69688 46 14.5 46C19.3031 46 23.2 42.1367 23.2 37.375H34.8C34.8 42.1367 38.6969 46 43.5 46C48.3031 46 52.2 42.1367 52.2 37.375H56.55C57.3475 37.375 58 36.7281 58 35.9375V33.0625C58 32.2719 57.3475 31.625 56.55 31.625ZM14.5 41.6875C12.0984 41.6875 10.15 39.7559 10.15 37.375C10.15 34.9941 12.0984 33.0625 14.5 33.0625C16.9016 33.0625 18.85 34.9941 18.85 37.375C18.85 39.7559 16.9016 41.6875 14.5 41.6875ZM43.5 41.6875C41.0984 41.6875 39.15 39.7559 39.15 37.375C39.15 34.9941 41.0984 33.0625 43.5 33.0625C45.9016 33.0625 47.85 34.9941 47.85 37.375C47.85 39.7559 45.9016 41.6875 43.5 41.6875ZM50.75 23H37.7V12.9375H41.6966L50.75 21.9129V23Z" fill="#C4C4C4"/>
</svg>
