<svg width="14" height="16" viewBox="0 0 14 16" fill="none" xmlns="http://www.w3.org/2000/svg">
<g clip-path="url(#clip0)">
<path d="M7.00309 4.40623C5.01559 4.40623 3.41246 6.00935 3.41246 7.99685C3.41246 9.98435 5.01559 11.5875 7.00309 11.5875C8.99059 11.5875 10.5937 9.98435 10.5937 7.99685C10.5937 6.00935 8.99059 4.40623 7.00309 4.40623ZM7.00309 10.3312C5.71871 10.3312 4.66871 9.28435 4.66871 7.99685C4.66871 6.70935 5.71559 5.66248 7.00309 5.66248C8.29059 5.66248 9.33746 6.70935 9.33746 7.99685C9.33746 9.28435 8.28746 10.3312 7.00309 10.3312ZM11.5781 4.25935C11.5781 4.72498 11.2031 5.09685 10.7406 5.09685C10.275 5.09685 9.90309 4.72185 9.90309 4.25935C9.90309 3.79685 10.2781 3.42185 10.7406 3.42185C11.2031 3.42185 11.5781 3.79685 11.5781 4.25935ZM13.9562 5.10935C13.9031 3.98748 13.6468 2.99373 12.825 2.17498C12.0062 1.35623 11.0125 1.09998 9.89059 1.04373C8.73434 0.978101 5.26871 0.978101 4.11246 1.04373C2.99371 1.09685 1.99996 1.3531 1.17809 2.17185C0.356213 2.9906 0.103088 3.98435 0.0468384 5.10623C-0.0187866 6.26248 -0.0187866 9.7281 0.0468384 10.8843C0.0999634 12.0062 0.356213 13 1.17809 13.8187C1.99996 14.6375 2.99059 14.8937 4.11246 14.95C5.26871 15.0156 8.73434 15.0156 9.89059 14.95C11.0125 14.8968 12.0062 14.6406 12.825 13.8187C13.6437 13 13.9 12.0062 13.9562 10.8843C14.0218 9.7281 14.0218 6.2656 13.9562 5.10935ZM12.4625 12.125C12.2187 12.7375 11.7468 13.2093 11.1312 13.4562C10.2093 13.8218 8.02184 13.7375 7.00309 13.7375C5.98434 13.7375 3.79371 13.8187 2.87496 13.4562C2.26246 13.2125 1.79059 12.7406 1.54371 12.125C1.17809 11.2031 1.26246 9.0156 1.26246 7.99685C1.26246 6.9781 1.18121 4.78748 1.54371 3.86873C1.78746 3.25623 2.25934 2.78435 2.87496 2.53748C3.79684 2.17185 5.98434 2.25623 7.00309 2.25623C8.02184 2.25623 10.2125 2.17498 11.1312 2.53748C11.7437 2.78123 12.2156 3.2531 12.4625 3.86873C12.8281 4.7906 12.7437 6.9781 12.7437 7.99685C12.7437 9.0156 12.8281 11.2062 12.4625 12.125Z" fill="white"/>
</g>
<defs>
<clipPath id="clip0">
<rect width="14" height="16" fill="white"/>
</clipPath>
</defs>
</svg>
