<svg width="28" height="28" viewBox="0 0 28 28" fill="none" xmlns="http://www.w3.org/2000/svg">
<path d="M16.3789 2.625C11.5562 2.625 7.62891 6.55225 7.62891 11.375C7.62891 13.4702 8.36377 15.3911 9.59766 16.8984L2.625 23.8711L3.88281 25.1289L10.8555 18.1562C12.3628 19.3901 14.2837 20.125 16.3789 20.125C21.2017 20.125 25.1289 16.1978 25.1289 11.375C25.1289 6.55225 21.2017 2.625 16.3789 2.625ZM16.3789 4.375C20.2549 4.375 23.3789 7.49902 23.3789 11.375C23.3789 15.251 20.2549 18.375 16.3789 18.375C12.5029 18.375 9.37891 15.251 9.37891 11.375C9.37891 7.49902 12.5029 4.375 16.3789 4.375Z" fill="black" fill-opacity="0.8"/>
</svg>
