<svg width="20" height="20" viewBox="0 0 20 20" fill="none" xmlns="http://www.w3.org/2000/svg">
<mask id="path-1-inside-1" fill="white">
<path d="M0.136192 0.136191C0.31778 -0.0453967 0.612192 -0.0453967 0.793779 0.136191L19.8638 19.2062C20.0454 19.3878 20.0454 19.6822 19.8638 19.8638C19.6822 20.0454 19.3878 20.0454 19.2062 19.8638L0.136192 0.793778C-0.0453958 0.61219 -0.0453955 0.317779 0.136192 0.136191Z"/>
<path d="M19.8638 0.136191C20.0454 0.317779 20.0454 0.61219 19.8638 0.793778L0.793778 19.8638C0.61219 20.0454 0.317778 20.0454 0.136191 19.8638C-0.0453969 19.6822 -0.0453969 19.3878 0.136191 19.2062L19.2062 0.136191C19.3878 -0.0453971 19.6822 -0.0453968 19.8638 0.136191Z"/>
</mask>
<path d="M0.136192 0.793778L0.843299 0.0866711L0.843299 0.0866711L0.136192 0.793778ZM19.2062 19.8638L18.4991 20.5709L18.4991 20.5709L19.2062 19.8638ZM19.8638 19.2062L20.5709 18.4991L19.8638 19.2062ZM0.793779 0.136191L0.0866727 0.843298L0.793779 0.136191ZM19.2062 0.136191L19.9133 0.843297L19.2062 0.136191ZM0.136191 19.2062L-0.570916 18.4991L0.136191 19.2062ZM0.793778 19.8638L0.0866709 19.1567L0.0866709 19.1567L0.793778 19.8638ZM19.8638 0.793778L20.5709 1.50089L20.5709 1.50088L19.8638 0.793778ZM0.0866727 0.843298L19.1567 19.9133L20.5709 18.4991L1.50089 -0.570916L0.0866727 0.843298ZM19.9133 19.1567L0.843299 0.0866711L-0.570915 1.50088L18.4991 20.5709L19.9133 19.1567ZM0.843299 0.0866711C1.05224 0.295609 1.05223 0.634362 0.843299 0.843298L-0.570915 -0.570916C-1.14303 0.00119525 -1.14303 0.928772 -0.570915 1.50088L0.843299 0.0866711ZM19.1567 19.1567C19.3656 18.9478 19.7044 18.9478 19.9133 19.1567L18.4991 20.5709C19.0712 21.143 19.9988 21.143 20.5709 20.5709L19.1567 19.1567ZM19.1567 19.9133C18.9478 19.7044 18.9478 19.3656 19.1567 19.1567L20.5709 20.5709C21.143 19.9988 21.143 19.0712 20.5709 18.4991L19.1567 19.9133ZM1.50089 -0.570916C0.928774 -1.14303 0.00119745 -1.14303 -0.570915 -0.570916L0.843299 0.843298C0.634362 1.05223 0.295609 1.05223 0.0866727 0.843298L1.50089 -0.570916ZM19.1567 0.0866714L0.0866709 19.1567L1.50088 20.5709L20.5709 1.50089L19.1567 0.0866714ZM0.843298 19.9133L19.9133 0.843297L18.4991 -0.570916L-0.570916 18.4991L0.843298 19.9133ZM19.9133 0.843297C19.7044 1.05223 19.3656 1.05223 19.1567 0.843298L20.5709 -0.570916C19.9988 -1.14303 19.0712 -1.14303 18.4991 -0.570916L19.9133 0.843297ZM0.843298 19.1567C1.05223 19.3656 1.05223 19.7044 0.843298 19.9133L-0.570916 18.4991C-1.14303 19.0712 -1.14303 19.9988 -0.570916 20.5709L0.843298 19.1567ZM0.0866709 19.1567C0.295607 18.9478 0.634361 18.9478 0.843298 19.1567L-0.570916 20.5709C0.00119596 21.143 0.928772 21.143 1.50088 20.5709L0.0866709 19.1567ZM20.5709 1.50088C21.143 0.928773 21.143 0.00119611 20.5709 -0.570916L19.1567 0.843298C18.9478 0.634361 18.9478 0.295608 19.1567 0.0866714L20.5709 1.50088Z" fill="rgba(0, 0, 0, 0.5)" mask="url(#path-1-inside-1)"/>
</svg>
