<svg width="1110" height="1131" fill="none" xmlns="http://www.w3.org/2000/svg"><g opacity=".32"><mask id="a" maskUnits="userSpaceOnUse" x="289" y="285" width="821" height="600"><path transform="rotate(-90 290 885)" fill="#C4C4C4" d="M290 885h600v820H290z"/></mask><g mask="url(#a)" stroke="#FF7575"><path d="M437.965 1499.77c83.859-354.42 267.653-369.66 437.277-442.72 169.628-73.048 461.618-250.265 534.258-494.577 58.11-195.45 127.42-205.328 154.81-185.836"/><path d="M417.638 1473.33c83.858-354.42 267.653-369.66 437.277-442.71 169.625-73.057 461.615-250.274 534.255-494.586 58.12-195.45 127.42-205.328 154.81-185.836"/><path d="M397.312 1446.89c83.858-354.42 267.653-369.66 437.276-442.71 169.622-73.056 461.612-250.273 534.262-494.585 58.11-195.45 127.42-205.328 154.81-185.836"/><path d="M376.984 1420.45c83.859-354.42 267.653-369.66 437.277-442.713 169.623-73.052 461.619-250.269 534.259-494.581 58.11-195.45 127.42-205.328 154.81-185.836"/><path d="M356.658 1394.01c83.858-354.42 267.653-369.66 437.276-442.712 169.624-73.052 461.616-250.269 534.256-494.581 58.12-195.45 127.42-205.328 154.81-185.836"/><path d="M336.331 1367.57c83.858-354.41 267.653-369.658 437.276-442.711C943.23 851.807 1235.22 674.59 1307.86 430.278c58.12-195.45 127.43-205.328 154.82-185.836"/><path d="M316.004 1341.13c83.858-354.414 267.653-369.657 437.276-442.71 169.624-73.052 461.62-250.269 534.26-494.581 58.11-195.45 127.42-205.328 154.81-185.836"/><path d="M295.677 1314.69c83.858-354.412 267.653-369.656 437.276-442.709C902.577 798.929 1194.57 621.712 1267.21 377.4c58.12-195.45 127.42-205.328 154.81-185.836"/><path d="M275.35 1288.25c83.858-354.411 267.653-369.655 437.277-442.707C882.25 772.49 1174.24 595.274 1246.88 350.961c58.12-195.45 127.43-205.328 154.82-185.836"/><path d="M255.023 1261.81c83.858-354.41 267.653-369.654 437.276-442.706 169.624-73.053 461.611-250.269 534.261-494.582 58.11-195.449 127.42-205.328 154.81-185.835"/><path d="M234.696 1235.38c83.859-354.42 267.653-369.663 437.277-442.716 169.623-73.052 461.617-250.269 534.257-494.581 58.11-195.45 127.42-205.328 154.81-185.836"/><path d="M214.369 1208.94c83.858-354.418 267.653-369.662 437.277-442.715 169.623-73.052 461.614-250.269 534.254-494.581 58.12-195.45 127.43-205.328 154.81-185.836"/><path d="M194.042 1182.5c83.859-354.417 267.654-369.661 437.277-442.713 169.623-73.053 461.611-250.269 534.261-494.582C1223.69 49.755 1293 39.877 1320.39 59.37"/><path d="M173.715 1156.06c83.859-354.416 267.653-369.66 437.277-442.712 169.623-73.053 461.618-250.269 534.258-494.582 58.11-195.45 127.42-205.327 154.81-185.835"/></g></g></svg>