<svg width="485" height="630" fill="none" xmlns="http://www.w3.org/2000/svg"><mask id="a" maskUnits="userSpaceOnUse" x="0" y="0" width="485" height="630"><path d="M0 630h485V0H0v630z" fill="#C4C4C4"/></mask><g mask="url(#a)"><path d="M-165.843-46.27C194.396 7.894 224.743 189.84 311.553 352.86c86.811 163.019 287.552 439.369 537.102 491.496 199.645 41.702 215.205 109.97 198.025 138.891" stroke="#fff"/><path d="M-141.161-68.728c360.239 54.166 390.586 236.111 477.397 399.13 86.81 163.019 287.551 439.369 537.101 491.497 199.643 41.702 215.203 109.969 198.023 138.89" stroke="#fff"/><path d="M-116.479-91.186C243.76-37.02 274.108 144.926 360.918 307.945c86.81 163.019 287.552 439.369 537.102 491.496 199.64 41.702 215.2 109.97 198.03 138.891" stroke="#fff"/><path d="M-91.797-113.643C268.443-59.477 298.79 122.468 385.6 285.487s287.552 439.369 537.102 491.497c199.638 41.702 215.198 109.969 198.028 138.89" stroke="#fff"/><path d="M-67.115-136.1c360.24 54.165 390.587 236.111 477.397 399.13s287.552 439.369 537.102 491.496c199.636 41.702 215.196 109.97 198.026 138.891" stroke="#fff"/><path d="M-42.432-158.558c360.239 54.166 390.586 236.111 477.396 399.13 86.811 163.02 287.552 439.37 537.102 491.497 199.644 41.702 215.204 109.969 198.024 138.89" stroke="#fff"/><path d="M-17.75-181.015c360.239 54.166 390.587 236.11 477.397 399.13 86.81 163.019 287.551 439.369 537.101 491.497 199.642 41.702 215.202 109.969 198.022 138.89" stroke="#fff"/><path d="M6.932-203.473C367.171-149.307 397.52 32.638 484.33 195.657c86.81 163.02 287.552 439.37 537.101 491.497 199.64 41.702 215.2 109.97 198.03 138.891" stroke="#fff"/><path d="M31.614-225.93c360.24 54.166 390.587 236.11 477.397 399.13 86.81 163.019 287.552 439.369 537.099 491.497 199.64 41.702 215.2 109.969 198.03 138.89" stroke="#fff"/><path d="M56.297-248.388c360.239 54.166 390.586 236.111 477.396 399.131 86.81 163.019 287.552 439.369 537.097 491.496 199.64 41.702 215.21 109.97 198.03 138.891" stroke="#fff"/><path d="M80.979-270.845c360.239 54.166 390.586 236.111 477.396 399.13 86.811 163.019 287.552 439.369 537.105 491.497 199.64 41.702 215.2 109.969 198.02 138.89" stroke="#fff"/><path d="M105.661-293.303C465.9-239.137 496.247-57.191 583.058 105.828c86.81 163.019 287.551 439.369 537.102 491.496 199.64 41.702 215.2 109.97 198.03 138.891" stroke="#fff"/><path d="M130.343-315.76C490.582-261.594 520.93-79.649 607.74 83.37s287.552 439.369 537.1 491.497c199.64 41.702 215.2 109.969 198.03 138.89" stroke="#fff"/><path d="M155.025-338.217c360.24 54.165 390.587 236.111 477.397 399.13s287.552 439.369 537.098 491.496c199.64 41.702 215.2 109.97 198.03 138.891" stroke="#fff"/><g opacity=".32" stroke="#FF7575"><path d="M-165.843-46.27C194.396 7.894 224.743 189.84 311.553 352.86c86.811 163.019 287.552 439.369 537.102 491.496 199.645 41.702 215.205 109.97 198.025 138.891"/><path d="M-141.161-68.728c360.239 54.166 390.586 236.111 477.397 399.13 86.81 163.019 287.551 439.369 537.101 491.497 199.643 41.702 215.203 109.969 198.023 138.89"/><path d="M-116.479-91.186C243.76-37.02 274.108 144.926 360.918 307.945c86.81 163.019 287.552 439.369 537.102 491.496 199.64 41.702 215.2 109.97 198.03 138.891"/><path d="M-91.797-113.643C268.443-59.477 298.79 122.468 385.6 285.487s287.552 439.369 537.102 491.497c199.638 41.702 215.198 109.969 198.028 138.89"/><path d="M-67.115-136.1c360.24 54.165 390.587 236.111 477.397 399.13s287.552 439.369 537.102 491.496c199.636 41.702 215.196 109.97 198.026 138.891"/><path d="M-42.432-158.558c360.239 54.166 390.586 236.111 477.396 399.13 86.811 163.02 287.552 439.37 537.102 491.497 199.644 41.702 215.204 109.969 198.024 138.89"/><path d="M-17.75-181.015c360.239 54.166 390.587 236.11 477.397 399.13 86.81 163.019 287.551 439.369 537.101 491.497 199.642 41.702 215.202 109.969 198.022 138.89"/><path d="M6.932-203.473C367.171-149.307 397.52 32.638 484.33 195.657c86.81 163.02 287.552 439.37 537.101 491.497 199.64 41.702 215.2 109.97 198.03 138.891"/><path d="M31.614-225.93c360.24 54.166 390.587 236.11 477.397 399.13 86.81 163.019 287.552 439.369 537.099 491.497 199.64 41.702 215.2 109.969 198.03 138.89"/><path d="M56.297-248.388c360.239 54.166 390.586 236.111 477.396 399.131 86.81 163.019 287.552 439.369 537.097 491.496 199.64 41.702 215.21 109.97 198.03 138.891"/><path d="M80.979-270.845c360.239 54.166 390.586 236.111 477.396 399.13 86.811 163.019 287.552 439.369 537.105 491.497 199.64 41.702 215.2 109.969 198.02 138.89"/><path d="M105.661-293.303C465.9-239.137 496.247-57.191 583.058 105.828c86.81 163.019 287.551 439.369 537.102 491.496 199.64 41.702 215.2 109.97 198.03 138.891"/><path d="M130.343-315.76C490.582-261.594 520.93-79.649 607.74 83.37s287.552 439.369 537.1 491.497c199.64 41.702 215.2 109.969 198.03 138.89"/><path d="M155.025-338.217c360.24 54.165 390.587 236.111 477.397 399.13s287.552 439.369 537.098 491.496c199.64 41.702 215.2 109.97 198.03 138.891"/></g></g></svg>