<svg width="1440" height="350" fill="none" xmlns="http://www.w3.org/2000/svg"><mask id="a" maskUnits="userSpaceOnUse" x="0" y="42" width="1440" height="266"><path fill="#C4C4C4" d="M0 42h1440v266H0z"/></mask><g mask="url(#a)" stroke="#FF7575"><path d="M-69 534.028c282.5-230 437.5-130 616.5-84.5s518.5 83 725-66.5c165.2-119.6 226.17-85.167 236-53"/><path d="M-69 500.658c282.5-230 437.5-130 616.5-84.5s518.5 83 725-66.5c165.2-119.6 226.17-85.167 236-53"/><path d="M-69 467.288c282.5-230 437.5-130 616.5-84.5s518.5 83 725-66.5c165.2-119.6 226.17-85.167 236-53"/><path d="M-69 433.918c282.5-230 437.5-130 616.5-84.5s518.5 83 725-66.5c165.2-119.6 226.17-85.167 236-53"/><path d="M-69 400.548c282.5-230 437.5-130 616.5-84.5s518.5 83 725-66.5c165.2-119.6 226.17-85.167 236-53"/><path d="M-69 367.178c282.5-230 437.5-130 616.5-84.5s518.5 83 725-66.5c165.2-119.6 226.17-85.166 236-53"/><path d="M-69 333.808c282.5-230 437.5-130 616.5-84.5s518.5 83 725-66.5c165.2-119.6 226.17-85.166 236-53"/><path d="M-69 300.438c282.5-230 437.5-130 616.5-84.5s518.5 83 725-66.5c165.2-119.6 226.17-85.166 236-53"/><path d="M-69 267.069c282.5-230 437.5-130 616.5-84.5s518.5 83 725-66.5c165.2-119.6 226.17-85.167 236-53"/><path d="M-69 233.699c282.5-230 437.5-130 616.5-84.5s518.5 83 725-66.5c165.2-119.6 226.17-85.167 236-53"/><path d="M-69 200.329c282.5-230 437.5-130 616.5-84.5s518.5 83 725-66.5c165.2-119.6 226.17-85.167 236-53"/><path d="M-69 166.959c282.5-230 437.5-130 616.5-84.5s518.5 83 725-66.5c165.2-119.6 226.17-85.167 236-53"/><path d="M-69 133.589c282.5-230 437.5-130 616.5-84.5s518.5 83 725-66.5c165.2-119.6 226.17-85.167 236-53"/><path d="M-69 100.219c282.5-230 437.5-130 616.5-84.5s518.5 83 725-66.5c165.2-119.6 226.17-85.166 236-53"/><path d="M-69 66.85c282.5-230.001 437.5-130 616.5-84.5s518.5 83 725-66.5c165.2-119.601 226.17-85.167 236-53.001"/></g><g opacity=".32"><mask id="b" maskUnits="userSpaceOnUse" x="-69" y="0" width="1578" height="350"><path fill="#C4C4C4" d="M-69 0h1578v350H-69z"/></mask><g mask="url(#b)" stroke="#ED413C"><path d="M-69 567.397c282.5-230 437.5-130 616.5-84.5s518.5 83 725-66.5c165.2-119.6 226.17-85.166 236-53"/><path d="M-69 534.028c282.5-230 437.5-130 616.5-84.5s518.5 83 725-66.5c165.2-119.6 226.17-85.167 236-53"/><path d="M-69 500.658c282.5-230 437.5-130 616.5-84.5s518.5 83 725-66.5c165.2-119.6 226.17-85.167 236-53"/><path d="M-69 467.288c282.5-230 437.5-130 616.5-84.5s518.5 83 725-66.5c165.2-119.6 226.17-85.167 236-53"/><path d="M-69 433.918c282.5-230 437.5-130 616.5-84.5s518.5 83 725-66.5c165.2-119.6 226.17-85.167 236-53"/><path d="M-69 400.548c282.5-230 437.5-130 616.5-84.5s518.5 83 725-66.5c165.2-119.6 226.17-85.167 236-53"/><path d="M-69 367.178c282.5-230 437.5-130 616.5-84.5s518.5 83 725-66.5c165.2-119.6 226.17-85.166 236-53"/><path d="M-69 333.808c282.5-230 437.5-130 616.5-84.5s518.5 83 725-66.5c165.2-119.6 226.17-85.166 236-53"/><path d="M-69 300.438c282.5-230 437.5-130 616.5-84.5s518.5 83 725-66.5c165.2-119.6 226.17-85.166 236-53"/><path d="M-69 267.069c282.5-230 437.5-130 616.5-84.5s518.5 83 725-66.5c165.2-119.6 226.17-85.167 236-53"/><path d="M-69 233.699c282.5-230 437.5-130 616.5-84.5s518.5 83 725-66.5c165.2-119.6 226.17-85.167 236-53"/><path d="M-69 200.329c282.5-230 437.5-130 616.5-84.5s518.5 83 725-66.5c165.2-119.6 226.17-85.167 236-53"/><path d="M-69 166.959c282.5-230 437.5-130 616.5-84.5s518.5 83 725-66.5c165.2-119.6 226.17-85.167 236-53"/><path d="M-69 133.589c282.5-230 437.5-130 616.5-84.5s518.5 83 725-66.5c165.2-119.6 226.17-85.167 236-53"/><path d="M-69 100.219c282.5-230 437.5-130 616.5-84.5s518.5 83 725-66.5c165.2-119.6 226.17-85.166 236-53"/><path d="M-69 66.85c282.5-230.001 437.5-130 616.5-84.5s518.5 83 725-66.5c165.2-119.601 226.17-85.167 236-53.001"/><path d="M-69 33.48c282.5-230.001 437.5-130 616.5-84.5s518.5 83 725-66.5c165.2-119.6 226.17-85.167 236-53"/><path d="M-69 .11c282.5-230 437.5-130 616.5-84.5s518.5 83 725-66.5c165.2-119.6 226.17-85.167 236-53"/></g></g></svg>