<svg width="18" height="16" fill="none" xmlns="http://www.w3.org/2000/svg"><path d="M17.031 3.678c.116-.39 0-.678-.556-.678h-1.84c-.47 0-.685.247-.8.522 0 0-.938 2.284-2.263 3.765-.428.429-.625.566-.86.566-.115 0-.293-.137-.293-.528V3.678c0-.469-.132-.678-.519-.678H7.006c-.293 0-.468.219-.468.422 0 .444.662.547.73 1.797V7.93c0 .594-.105.703-.34.703-.625 0-2.144-2.293-3.044-4.918-.18-.51-.359-.716-.83-.716H1.212c-.525 0-.632.247-.632.522 0 .487.625 2.91 2.91 6.11C5.013 11.815 7.156 13 9.106 13c1.172 0 1.316-.262 1.316-.716 0-2.087-.106-2.284.481-2.284.272 0 .74.137 1.835 1.19 1.25 1.25 1.456 1.81 2.156 1.81h1.84c.525 0 .791-.262.638-.781-.35-1.09-2.716-3.335-2.822-3.485-.272-.35-.194-.506 0-.818.003-.004 2.25-3.166 2.481-4.238z" fill="#fff"/></svg>