<svg width="20" height="20" fill="none" xmlns="http://www.w3.org/2000/svg"><mask id="a" fill="#fff"><path d="M.136.136a.465.465 0 01.658 0l19.07 19.07a.465.465 0 11-.658.658L.136.794a.465.465 0 010-.658z"/><path d="M19.864.136a.465.465 0 010 .658L.794 19.864a.465.465 0 11-.658-.658L19.206.136a.465.465 0 01.658 0z"/></mask><path d="M.136.794L.843.087.136.794zm19.07 19.07l-.707.707.707-.707zm.658-.658l.707-.707-.707.707zM.794.136L.087.843.794.136zm18.412 0l.707.707-.707-.707zM.136 19.206L-.57 18.5l.707.707zm.658.658l-.707-.707.707.707zM19.864.794l.707.707-.707-.707zM.087.844l19.07 19.07 1.414-1.415L1.5-.57.087.843zm19.826 18.313L.843.087-.57 1.5 18.5 20.57l1.414-1.414zM.843.087a.535.535 0 010 .756L-.57-.57a1.465 1.465 0 000 2.072L.843.087zm18.314 19.07a.535.535 0 01.756 0L18.5 20.57c.572.572 1.5.572 2.072 0l-1.414-1.414zm0 .756a.535.535 0 010-.756l1.414 1.414c.572-.572.572-1.5 0-2.072l-1.414 1.414zM1.5-.57a1.465 1.465 0 00-2.072 0L.843.843a.535.535 0 01-.756 0L1.5-.57zm17.656.658L.087 19.157 1.5 20.57 20.57 1.5 19.157.087zM.843 19.913L19.913.843 18.5-.57-.57 18.5l1.414 1.414zM19.913.843a.535.535 0 01-.756 0L20.57-.57a1.465 1.465 0 00-2.072 0L19.913.843zM.843 19.157a.535.535 0 010 .756L-.57 18.5a1.465 1.465 0 000 2.072l1.414-1.414zm-.756 0a.535.535 0 01.756 0L-.57 20.57c.572.572 1.5.572 2.072 0L.087 19.157zM20.57 1.5c.572-.572.572-1.5 0-2.072L19.157.843a.535.535 0 010-.756L20.57 1.5z" fill="rgba(0, 0, 0, 0.5)" mask="url(#a)"/></svg>