<svg width="58" height="46" fill="none" xmlns="http://www.w3.org/2000/svg"><path d="M56.55 31.625H55.1v-9.712a4.294 4.294 0 00-1.278-3.046L44.77 9.892a4.37 4.37 0 00-3.072-1.267H37.7V4.312C37.7 1.933 35.752 0 33.35 0h-29C1.948 0 0 1.932 0 4.313v28.75c0 2.38 1.948 4.312 4.35 4.312H5.8C5.8 42.137 9.697 46 14.5 46c4.803 0 8.7-3.863 8.7-8.625h11.6c0 4.762 3.897 8.625 8.7 8.625 4.803 0 8.7-3.863 8.7-8.625h4.35c.797 0 1.45-.647 1.45-1.438v-2.874c0-.791-.653-1.438-1.45-1.438zM14.5 41.688c-2.402 0-4.35-1.932-4.35-4.313 0-2.38 1.948-4.313 4.35-4.313 2.402 0 4.35 1.932 4.35 4.313 0 2.38-1.948 4.313-4.35 4.313zm29 0c-2.402 0-4.35-1.932-4.35-4.313 0-2.38 1.948-4.313 4.35-4.313 2.402 0 4.35 1.932 4.35 4.313 0 2.38-1.948 4.313-4.35 4.313zM50.75 23H37.7V12.937h3.997l9.053 8.976V23z" fill="#C4C4C4"/></svg>