<svg width="20" height="20" fill="none" xmlns="http://www.w3.org/2000/svg"><path opacity=".3" d="M10.04 0C4.545 0 0 4.468 0 9.96 0 15.454 4.546 20 10.04 20 15.531 20 20 15.454 20 9.96 20 4.469 15.532 0 10.04 0zm4.93 13.234a1.173 1.173 0 01-1.658 1.658l-3.273-3.274-3.351 3.274c-.457.457-1.2.457-1.658 0a1.174 1.174 0 010-1.658l3.274-3.273L5.03 6.687a1.174 1.174 0 010-1.657 1.174 1.174 0 011.658 0l3.351 3.274 3.273-3.274a1.174 1.174 0 011.658 0c.457.457.457 1.2 0 1.657l-3.274 3.274 3.274 3.273z" fill="#999"/></svg>